<svg width="891" height="684" viewBox="0 0 891 684" fill="none" xmlns="http://www.w3.org/2000/svg">
<path d="M401.894 493.842C400.106 500.182 398.208 507.059 392.9 510.96C343.91 546.956 136.942 348.525 154.012 415.698C171.971 486.364 215.049 548.07 275.194 589.284C335.34 630.497 408.436 648.396 480.819 639.634C553.202 630.873 619.916 596.05 668.492 541.677C717.067 487.303 744.178 417.1 744.757 344.191C745.336 271.282 719.344 200.657 671.638 145.519C623.932 90.3808 557.779 54.5032 485.545 44.5929C446.683 39.2612 407.492 41.6418 370.108 51.2476C316.617 64.9919 303.863 129.001 334.354 175.05L419.459 303.583C435.528 327.852 440.225 357.918 432.325 385.933L401.894 493.842Z" fill="#EDE6A4"/>
<rect x="262.216" y="384.971" width="406.032" height="184.836" transform="rotate(-5.92566 262.216 384.971)" fill="#C4C4C4"/>
<rect x="237.224" y="144.179" width="406.032" height="242.085" transform="rotate(-5.92566 237.224 144.179)" fill="#1C1C1C"/>
<rect x="247.516" y="156.267" width="388.052" height="217.55" transform="rotate(-5.92566 247.516 156.267)" fill="#F1F1F1"/>
<rect x="250.648" y="563.778" width="435.997" height="39.2571" transform="rotate(-5.92566 250.648 563.778)" fill="#B8B8B8"/>
<rect x="236.464" y="427.112" width="29.9654" height="137.4" transform="rotate(-5.92566 236.464 427.112)" fill="#B8B8B8"/>
<path d="M236.464 427.112L262.065 383.154L270.547 464.876L236.464 427.112Z" fill="#B8B8B8"/>
<rect x="552.217" y="407.066" width="44.9482" height="10.241" transform="rotate(-5.92566 552.217 407.066)" fill="#B8B8B8"/>
<rect x="549.573" y="381.601" width="8.17239" height="35.8434" transform="rotate(-5.92566 549.573 381.601)" fill="#B8B8B8"/>
<path d="M549.529 381.176L556.615 369.295L558.904 391.349L549.529 381.176Z" fill="#B8B8B8"/>
<rect x="607.356" y="401.343" width="44.9482" height="10.241" transform="rotate(-5.92566 607.356 401.343)" fill="#B8B8B8"/>
<rect x="604.713" y="375.877" width="8.17239" height="35.8434" transform="rotate(-5.92566 604.713 375.877)" fill="#B8B8B8"/>
<path d="M604.669 375.453L611.755 363.572L614.044 385.626L604.669 375.453Z" fill="#B8B8B8"/>
<rect x="612.591" y="451.779" width="44.9482" height="10.241" transform="rotate(-5.92566 612.591 451.779)" fill="#B8B8B8"/>
<rect x="609.948" y="426.314" width="8.17239" height="35.8434" transform="rotate(-5.92566 609.948 426.314)" fill="#B8B8B8"/>
<path d="M609.904 425.889L616.99 414.008L619.279 436.062L609.904 425.889Z" fill="#B8B8B8"/>
<rect x="497.077" y="412.789" width="44.9482" height="10.241" transform="rotate(-5.92566 497.077 412.789)" fill="#B8B8B8"/>
<rect x="494.434" y="387.324" width="8.17239" height="35.8434" transform="rotate(-5.92566 494.434 387.324)" fill="#B8B8B8"/>
<path d="M494.39 386.899L501.475 375.018L503.764 397.072L494.39 386.899Z" fill="#B8B8B8"/>
<rect x="557.451" y="457.502" width="44.9482" height="10.241" transform="rotate(-5.92566 557.451 457.502)" fill="#B8B8B8"/>
<rect x="554.808" y="432.037" width="8.17239" height="35.8434" transform="rotate(-5.92566 554.808 432.037)" fill="#B8B8B8"/>
<path d="M554.764 431.612L561.85 419.731L564.139 441.785L554.764 431.612Z" fill="#B8B8B8"/>
<rect x="502.312" y="463.225" width="44.9482" height="10.241" transform="rotate(-5.92566 502.312 463.225)" fill="#B8B8B8"/>
<rect x="499.669" y="437.76" width="8.17239" height="35.8434" transform="rotate(-5.92566 499.669 437.76)" fill="#B8B8B8"/>
<path d="M499.624 437.335L506.71 425.454L508.999 447.508L499.624 437.335Z" fill="#B8B8B8"/>
<rect x="441.937" y="418.512" width="44.9482" height="10.241" transform="rotate(-5.92566 441.937 418.512)" fill="#B8B8B8"/>
<rect x="439.294" y="393.047" width="8.17239" height="35.8434" transform="rotate(-5.92566 439.294 393.047)" fill="#B8B8B8"/>
<path d="M439.25 392.622L446.336 380.741L448.625 402.795L439.25 392.622Z" fill="#B8B8B8"/>
<rect x="447.172" y="468.949" width="44.9482" height="10.241" transform="rotate(-5.92566 447.172 468.949)" fill="#B8B8B8"/>
<rect x="444.529" y="443.483" width="8.17239" height="35.8434" transform="rotate(-5.92566 444.529 443.483)" fill="#B8B8B8"/>
<path d="M444.485 443.058L451.57 431.177L453.859 453.231L444.485 443.058Z" fill="#B8B8B8"/>
<rect x="452.407" y="519.385" width="44.9482" height="10.241" transform="rotate(-5.92566 452.407 519.385)" fill="#B8B8B8"/>
<rect x="449.764" y="493.919" width="8.17239" height="35.8434" transform="rotate(-5.92566 449.764 493.919)" fill="#B8B8B8"/>
<path d="M449.72 493.495L456.805 481.613L459.094 503.667L449.72 493.495Z" fill="#B8B8B8"/>
<rect x="617.826" y="502.215" width="44.9482" height="10.241" transform="rotate(-5.92566 617.826 502.215)" fill="#B8B8B8"/>
<rect x="615.183" y="476.75" width="8.17239" height="35.8434" transform="rotate(-5.92566 615.183 476.75)" fill="#B8B8B8"/>
<path d="M615.139 476.325L622.225 464.444L624.514 486.498L615.139 476.325Z" fill="#B8B8B8"/>
<rect x="386.797" y="424.236" width="44.9482" height="10.241" transform="rotate(-5.92566 386.797 424.236)" fill="#B8B8B8"/>
<rect x="384.154" y="398.77" width="8.17239" height="35.8434" transform="rotate(-5.92566 384.154 398.77)" fill="#B8B8B8"/>
<path d="M384.11 398.345L391.196 386.464L393.485 408.518L384.11 398.345Z" fill="#B8B8B8"/>
<rect x="392.032" y="474.672" width="44.9482" height="10.241" transform="rotate(-5.92566 392.032 474.672)" fill="#B8B8B8"/>
<rect x="389.389" y="449.206" width="8.17239" height="35.8434" transform="rotate(-5.92566 389.389 449.206)" fill="#B8B8B8"/>
<path d="M389.345 448.782L396.431 436.9L398.72 458.954L389.345 448.782Z" fill="#B8B8B8"/>
<rect x="397.267" y="525.108" width="44.9482" height="10.241" transform="rotate(-5.92566 397.267 525.108)" fill="#B8B8B8"/>
<rect x="394.624" y="499.642" width="8.17239" height="35.8434" transform="rotate(-5.92566 394.624 499.642)" fill="#B8B8B8"/>
<path d="M394.58 499.218L401.665 487.337L403.954 509.39L394.58 499.218Z" fill="#B8B8B8"/>
<rect x="562.686" y="507.939" width="44.9482" height="10.241" transform="rotate(-5.92566 562.686 507.939)" fill="#B8B8B8"/>
<rect x="560.043" y="482.473" width="8.17239" height="35.8434" transform="rotate(-5.92566 560.043 482.473)" fill="#B8B8B8"/>
<path d="M559.999 482.048L567.085 470.167L569.374 492.221L559.999 482.048Z" fill="#B8B8B8"/>
<rect x="331.657" y="429.959" width="44.9482" height="10.241" transform="rotate(-5.92566 331.657 429.959)" fill="#B8B8B8"/>
<rect x="329.014" y="404.493" width="8.17239" height="35.8434" transform="rotate(-5.92566 329.014 404.493)" fill="#B8B8B8"/>
<path d="M328.97 404.069L336.056 392.187L338.345 414.241L328.97 404.069Z" fill="#B8B8B8"/>
<rect x="336.892" y="480.395" width="44.9482" height="10.241" transform="rotate(-5.92566 336.892 480.395)" fill="#B8B8B8"/>
<rect x="334.249" y="454.929" width="8.17239" height="35.8434" transform="rotate(-5.92566 334.249 454.929)" fill="#B8B8B8"/>
<path d="M334.205 454.505L341.291 442.623L343.58 464.677L334.205 454.505Z" fill="#B8B8B8"/>
<rect x="342.127" y="530.831" width="44.9482" height="10.241" transform="rotate(-5.92566 342.127 530.831)" fill="#B8B8B8"/>
<rect x="339.484" y="505.365" width="8.17239" height="35.8434" transform="rotate(-5.92566 339.484 505.365)" fill="#B8B8B8"/>
<path d="M339.44 504.941L346.526 493.06L348.815 515.114L339.44 504.941Z" fill="#B8B8B8"/>
<rect x="507.547" y="513.662" width="44.9482" height="10.241" transform="rotate(-5.92566 507.547 513.662)" fill="#B8B8B8"/>
<rect x="504.903" y="488.196" width="8.17239" height="35.8434" transform="rotate(-5.92566 504.903 488.196)" fill="#B8B8B8"/>
<path d="M504.859 487.772L511.945 475.89L514.234 497.944L504.859 487.772Z" fill="#B8B8B8"/>
<rect x="279.498" y="435.372" width="44.9482" height="10.241" transform="rotate(-5.92566 279.498 435.372)" fill="#B8B8B8"/>
<rect x="276.855" y="409.907" width="8.17239" height="35.8434" transform="rotate(-5.92566 276.855 409.907)" fill="#B8B8B8"/>
<path d="M276.811 409.482L283.897 397.601L286.186 419.655L276.811 409.482Z" fill="#B8B8B8"/>
<rect x="284.733" y="485.809" width="44.9482" height="10.241" transform="rotate(-5.92566 284.733 485.809)" fill="#B8B8B8"/>
<rect x="282.09" y="460.343" width="8.17239" height="35.8434" transform="rotate(-5.92566 282.09 460.343)" fill="#B8B8B8"/>
<path d="M282.046 459.918L289.131 448.037L291.42 470.091L282.046 459.918Z" fill="#B8B8B8"/>
<rect x="289.968" y="536.245" width="44.9482" height="10.241" transform="rotate(-5.92566 289.968 536.245)" fill="#B8B8B8"/>
<rect x="287.325" y="510.779" width="8.17239" height="35.8434" transform="rotate(-5.92566 287.325 510.779)" fill="#B8B8B8"/>
<path d="M287.28 510.355L294.366 498.473L296.655 520.527L287.28 510.355Z" fill="#B8B8B8"/>
<rect x="556.177" y="369.754" width="37.307" height="36.8035" transform="rotate(-5.92566 556.177 369.754)" fill="#D4D4D4"/>
<rect x="611.317" y="364.031" width="37.307" height="36.8035" transform="rotate(-5.92566 611.317 364.031)" fill="#D4D4D4"/>
<rect x="616.552" y="414.467" width="37.307" height="36.8035" transform="rotate(-5.92566 616.552 414.467)" fill="#D4D4D4"/>
<rect x="501.037" y="375.477" width="37.307" height="36.8035" transform="rotate(-5.92566 501.037 375.477)" fill="#D4D4D4"/>
<rect x="561.412" y="420.19" width="37.307" height="36.8035" transform="rotate(-5.92566 561.412 420.19)" fill="#D4D4D4"/>
<rect x="506.221" y="425.425" width="37.307" height="36.8035" transform="rotate(-5.92566 506.221 425.425)" fill="#D4D4D4"/>
<rect x="445.897" y="381.2" width="37.307" height="36.8035" transform="rotate(-5.92566 445.897 381.2)" fill="#D4D4D4"/>
<rect x="451.132" y="431.636" width="37.307" height="36.8035" transform="rotate(-5.92566 451.132 431.636)" fill="#D4D4D4"/>
<rect x="456.367" y="482.073" width="37.307" height="36.8035" transform="rotate(-5.92566 456.367 482.073)" fill="#D4D4D4"/>
<rect x="621.786" y="464.903" width="37.307" height="36.8035" transform="rotate(-5.92566 621.786 464.903)" fill="#D4D4D4"/>
<rect x="390.757" y="386.923" width="37.307" height="36.8035" transform="rotate(-5.92566 390.757 386.923)" fill="#D4D4D4"/>
<rect x="395.992" y="437.359" width="37.307" height="36.8035" transform="rotate(-5.92566 395.992 437.359)" fill="#D4D4D4"/>
<rect x="401.227" y="487.796" width="37.307" height="36.8035" transform="rotate(-5.92566 401.227 487.796)" fill="#D4D4D4"/>
<rect x="566.647" y="470.626" width="37.307" height="36.8035" transform="rotate(-5.92566 566.647 470.626)" fill="#D4D4D4"/>
<rect x="335.617" y="392.646" width="37.307" height="36.8035" transform="rotate(-5.92566 335.617 392.646)" fill="#D4D4D4"/>
<rect x="340.852" y="443.083" width="37.307" height="36.8035" transform="rotate(-5.92566 340.852 443.083)" fill="#D4D4D4"/>
<rect x="346.087" y="493.519" width="37.307" height="36.8035" transform="rotate(-5.92566 346.087 493.519)" fill="#D4D4D4"/>
<rect x="511.507" y="476.349" width="37.307" height="36.8035" transform="rotate(-5.92566 511.507 476.349)" fill="#D4D4D4"/>
<rect x="283.458" y="398.06" width="37.307" height="36.8035" transform="rotate(-5.92566 283.458 398.06)" fill="#D5D5D5"/>
<rect x="288.693" y="448.496" width="37.307" height="36.8035" transform="rotate(-5.92566 288.693 448.496)" fill="#D5D5D5"/>
<rect x="293.928" y="498.932" width="37.307" height="36.8035" transform="rotate(-5.92566 293.928 498.932)" fill="#D5D5D5"/>
<path d="M528.028 400.934L525.778 401.168L515.877 388.977L517.234 402.055L514.985 402.288L513.223 385.317L515.473 385.083L525.404 397.331L524.04 384.194L526.267 383.963L528.028 400.934Z" fill="black"/>
<path d="M580.284 388.784L574.596 389.375L574.413 387.615L580.101 387.024L580.284 388.784Z" fill="black"/>
<path d="M477.023 448.785L469.668 449.549L470.293 455.563L478.836 454.677L479.026 456.507L468.245 457.626L466.483 440.654L477.148 439.547L477.34 441.389L468.912 442.264L469.478 447.719L476.833 446.955L477.023 448.785Z" fill="black"/>
<path d="M466.46 399.892L462.474 400.306L463.186 407.171L460.937 407.405L459.175 390.433L464.793 389.85C466.705 389.652 468.219 389.935 469.335 390.698C470.459 391.461 471.107 392.674 471.279 394.337C471.389 395.394 471.197 396.345 470.704 397.189C470.218 398.033 469.486 398.702 468.509 399.196L473.243 405.986L473.257 406.126L470.856 406.375L466.46 399.892ZM462.284 398.476L465.722 398.119C466.833 398.003 467.686 397.624 468.279 396.982C468.879 396.338 469.13 395.534 469.03 394.571C468.921 393.522 468.523 392.75 467.835 392.256C467.156 391.761 466.225 391.571 465.043 391.686L461.616 392.042L462.284 398.476Z" fill="black"/>
<path d="M412.005 462.97L410.243 445.998L415.034 445.501C416.511 445.348 417.85 445.539 419.052 446.074C420.255 446.609 421.225 447.446 421.964 448.587C422.711 449.727 423.169 451.078 423.339 452.639L423.451 453.723C423.618 455.324 423.452 456.759 422.956 458.027C422.467 459.296 421.681 460.312 420.598 461.076C419.522 461.84 418.224 462.308 416.702 462.482L412.005 462.97ZM412.673 447.608L414.053 460.907L416.408 460.663C418.133 460.484 419.417 459.809 420.262 458.637C421.114 457.465 421.438 455.888 421.232 453.906L421.129 452.915C420.929 450.988 420.319 449.539 419.299 448.569C418.287 447.59 416.948 447.18 415.284 447.337L412.673 447.608Z" fill="black"/>
<path d="M414.238 407.281L407.128 408.019L405.991 412.614L403.683 412.854L408.402 395.21L410.36 395.007L418.614 411.304L416.318 411.542L414.238 407.281ZM407.613 406.107L413.383 405.509L409.668 397.871L407.613 406.107Z" fill="black"/>
<path d="M427.135 505.107L419.78 505.871L420.404 511.885L428.948 510.999L429.138 512.829L418.356 513.948L416.595 496.976L427.26 495.869L427.451 497.711L419.024 498.586L419.59 504.041L426.945 503.277L427.135 505.107Z" fill="black"/>
<path d="M368.672 458.951C368.845 460.613 368.716 462.096 368.286 463.397C367.854 464.691 367.16 465.717 366.202 466.476C365.244 467.235 364.081 467.686 362.713 467.828C361.377 467.967 360.158 467.763 359.057 467.218C357.954 466.665 357.053 465.812 356.352 464.659C355.658 463.498 355.22 462.118 355.039 460.519L354.912 459.295C354.742 457.663 354.876 456.192 355.314 454.882C355.751 453.572 356.452 452.533 357.417 451.765C358.389 450.989 359.544 450.532 360.88 450.393C362.24 450.252 363.471 450.458 364.573 451.011C365.682 451.556 366.581 452.425 367.271 453.618C367.959 454.803 368.389 456.223 368.561 457.878L368.672 458.951ZM366.332 458.086C366.123 456.073 365.559 454.573 364.64 453.584C363.72 452.588 362.533 452.165 361.08 452.316C359.665 452.463 358.606 453.119 357.903 454.284C357.206 455.44 356.945 456.975 357.12 458.889L357.249 460.136C357.452 462.087 358.019 463.579 358.951 464.613C359.89 465.639 361.079 466.077 362.516 465.928C363.961 465.778 365.026 465.137 365.71 464.006C366.393 462.867 366.644 461.313 366.463 459.345L366.332 458.086Z" fill="black"/>
<path d="M359.917 408.974L352.562 409.737L353.186 415.752L361.73 414.865L361.92 416.695L351.138 417.814L349.377 400.843L360.042 399.736L360.233 401.578L351.806 402.452L352.372 407.907L359.727 407.144L359.917 408.974Z" fill="black"/>
<path d="M360.709 502.777L367.695 516.048L371.806 501.625L374.708 501.324L376.47 518.295L374.232 518.528L373.546 511.918L373.015 504.763L368.87 519.084L367.156 519.262L360.174 506.131L361.132 513.207L361.818 519.816L359.58 520.048L357.818 503.077L360.709 502.777Z" fill="black"/>
<path d="M316.588 466.443C316.564 468.26 316.044 469.716 315.026 470.812C314.016 471.898 312.586 472.538 310.737 472.729C308.732 472.938 307.049 472.386 305.687 471.074C304.333 469.761 303.532 467.901 303.282 465.492L303.112 463.86C302.948 462.282 303.084 460.866 303.519 459.611C303.963 458.356 304.668 457.356 305.635 456.611C306.602 455.859 307.765 455.412 309.125 455.271C310.928 455.084 312.425 455.439 313.618 456.337C314.81 457.226 315.588 458.551 315.951 460.312L313.702 460.546C313.367 459.214 312.842 458.279 312.126 457.74C311.418 457.201 310.482 456.992 309.316 457.113C307.886 457.261 306.818 457.906 306.112 459.048C305.413 460.189 305.165 461.734 305.368 463.685L305.538 465.328C305.73 467.17 306.266 468.595 307.148 469.603C308.031 470.611 309.163 471.043 310.547 470.899C311.79 470.77 312.713 470.392 313.315 469.764C313.925 469.127 314.266 468.098 314.338 466.677L316.588 466.443Z" fill="black"/>
<path d="M301.349 420.639L309.392 419.804L309.582 421.634L299.29 422.702L297.528 405.731L299.778 405.498L301.349 420.639Z" fill="black"/>
<path d="M314.285 523.607C314.247 523.234 314.323 522.912 314.515 522.64C314.714 522.368 315.036 522.209 315.479 522.163C315.921 522.117 316.269 522.207 316.52 522.432C316.779 522.657 316.927 522.955 316.966 523.328C317.003 523.686 316.918 523.997 316.71 524.262C316.509 524.527 316.188 524.682 315.745 524.728C315.302 524.774 314.955 524.688 314.705 524.47C314.462 524.252 314.322 523.964 314.285 523.607Z" fill="black"/>
<rect x="257.978" y="169.982" width="113.869" height="16.3571" rx="8.17856" transform="rotate(-5.92566 257.978 169.982)" fill="#0B69F5"/>
<rect x="260.848" y="197.64" width="137.841" height="16.3571" rx="8.17856" transform="rotate(-5.92566 260.848 197.64)" fill="#0B69F5"/>
<rect x="263.719" y="225.299" width="130.35" height="16.3571" rx="8.17856" transform="rotate(-5.92566 263.719 225.299)" fill="#0B69F5"/>
<rect x="266.59" y="252.957" width="65.924" height="16.3571" rx="8.17856" transform="rotate(-5.92566 266.59 252.957)" fill="#0B69F5"/>
<path d="M353.035 418.609L378.843 406.741L387.714 426.033L361.906 437.901L381.765 481.085L358.001 492.013L338.142 448.829L253.435 487.783L247.031 473.856L271.051 306.636L296.221 295.062L353.035 418.609ZM271.394 456.152L329.271 429.537L287.321 338.314L286.861 344.717L271.394 456.152ZM509.072 326.423C521.802 354.105 526.533 376.849 523.268 394.654C520.002 412.46 508.318 425.984 488.217 435.228C468.371 444.354 450.662 444.553 435.09 435.822C419.48 427.007 405.492 409.603 393.126 383.611L378.614 352.053C366.041 324.712 361.427 302.224 364.771 284.589C368.115 266.953 379.881 253.494 400.067 244.211C420.083 235.007 437.776 234.661 453.145 243.175C468.475 251.604 482.417 269.132 494.971 295.76L509.072 326.423ZM470.571 304.968C461.367 284.952 451.858 271.679 442.045 265.151C432.194 258.537 421.178 258.03 408.998 263.631C396.903 269.193 390.183 277.804 388.837 289.464C387.492 301.124 391.082 316.447 399.607 335.435L416.997 373.253C426.241 393.354 435.972 406.886 446.19 413.847C456.454 420.684 467.506 421.38 479.345 415.936C491.014 410.57 497.583 402.08 499.053 390.466C500.608 378.813 497.048 363.218 488.373 343.68L470.571 304.968ZM646.89 283.477L672.698 271.609L681.57 290.901L655.762 302.769L675.62 345.953L651.856 356.882L631.998 313.697L547.291 352.651L540.887 338.724L564.907 171.504L590.077 159.93L646.89 283.477ZM565.249 321.02L623.126 294.405L581.177 203.182L580.716 209.585L565.249 321.02Z" fill="black"/>
<path d="M353.035 418.609L348.946 420.489L350.826 424.578L354.915 422.697L353.035 418.609ZM378.843 406.741L382.931 404.861L381.051 400.772L376.963 402.652L378.843 406.741ZM387.714 426.033L389.594 430.122L393.683 428.242L391.803 424.153L387.714 426.033ZM361.906 437.901L360.026 433.813L355.938 435.693L357.818 439.781L361.906 437.901ZM381.765 481.085L383.645 485.174L387.733 483.294L385.853 479.205L381.765 481.085ZM358.001 492.013L353.912 493.894L355.792 497.982L359.881 496.102L358.001 492.013ZM338.142 448.829L342.231 446.949L340.351 442.861L336.262 444.741L338.142 448.829ZM253.435 487.783L249.347 489.663L251.227 493.751L255.315 491.871L253.435 487.783ZM247.031 473.856L242.577 473.217L242.388 474.531L242.943 475.737L247.031 473.856ZM271.051 306.636L269.171 302.548L266.946 303.571L266.597 305.996L271.051 306.636ZM296.221 295.062L300.309 293.182L298.429 289.093L294.341 290.973L296.221 295.062ZM271.394 456.152L266.937 455.534L265.807 463.675L273.274 460.241L271.394 456.152ZM329.271 429.537L331.151 433.626L335.239 431.745L333.359 427.657L329.271 429.537ZM287.321 338.314L291.41 336.434L282.833 337.991L287.321 338.314ZM286.861 344.717L291.318 345.336L291.338 345.188L291.349 345.04L286.861 344.717ZM354.915 422.697L380.723 410.829L376.963 402.652L351.154 414.521L354.915 422.697ZM374.754 408.621L383.626 427.913L391.803 424.153L382.931 404.861L374.754 408.621ZM385.834 421.945L360.026 433.813L363.786 441.99L389.594 430.122L385.834 421.945ZM357.818 439.781L377.676 482.966L385.853 479.205L365.995 436.021L357.818 439.781ZM379.884 476.997L356.121 487.925L359.881 496.102L383.645 485.174L379.884 476.997ZM362.089 490.133L342.231 446.949L334.054 450.709L353.912 493.894L362.089 490.133ZM336.262 444.741L251.555 483.694L255.315 491.871L340.022 452.918L336.262 444.741ZM257.524 485.903L251.12 471.976L242.943 475.737L249.347 489.663L257.524 485.903ZM251.485 474.496L275.506 307.276L266.597 305.996L242.577 473.217L251.485 474.496ZM272.932 310.724L298.101 299.15L294.341 290.973L269.171 302.548L272.932 310.724ZM292.132 296.942L348.946 420.489L357.123 416.729L300.309 293.182L292.132 296.942ZM273.274 460.241L331.151 433.626L327.39 425.449L269.514 452.064L273.274 460.241ZM333.359 427.657L291.41 336.434L283.233 340.194L325.182 431.417L333.359 427.657ZM282.833 337.991L282.372 344.394L291.349 345.04L291.81 338.637L282.833 337.991ZM282.403 344.098L266.937 455.534L275.851 456.771L291.318 345.336L282.403 344.098ZM435.09 435.822L432.878 439.741L432.89 439.748L435.09 435.822ZM393.126 383.611L389.038 385.491L389.05 385.518L389.063 385.544L393.126 383.611ZM453.145 243.175L450.964 247.112L450.971 247.115L450.977 247.118L453.145 243.175ZM494.971 295.76L499.06 293.88L499.051 293.86L499.041 293.841L494.971 295.76ZM442.045 265.151L439.537 268.887L439.545 268.892L439.553 268.897L442.045 265.151ZM399.607 335.435L395.501 337.278L395.51 337.296L395.518 337.315L399.607 335.435ZM446.19 413.847L443.656 417.566L443.676 417.579L443.695 417.592L446.19 413.847ZM499.053 390.466L494.593 389.871L494.591 389.886L494.589 389.901L499.053 390.466ZM488.373 343.68L492.486 341.854L492.474 341.827L492.462 341.8L488.373 343.68ZM504.983 328.303C517.564 355.661 521.861 377.381 518.841 393.842L527.694 395.466C531.206 376.316 526.039 352.549 513.16 324.543L504.983 328.303ZM518.841 393.842C515.9 409.878 505.441 422.354 486.337 431.14L490.097 439.317C511.195 429.614 524.103 415.041 527.694 395.466L518.841 393.842ZM486.337 431.14C467.47 439.816 451.322 439.763 437.291 431.897L432.89 439.748C450.002 449.342 469.271 448.893 490.097 439.317L486.337 431.14ZM437.303 431.904C422.854 423.745 409.378 407.299 397.19 381.678L389.063 385.544C401.605 411.908 416.105 430.269 432.878 439.741L437.303 431.904ZM397.215 381.731L382.703 350.173L374.526 353.933L389.038 385.491L397.215 381.731ZM382.703 350.173C370.282 323.163 366.105 301.708 369.192 285.427L360.35 283.75C356.749 302.739 361.801 326.261 374.526 353.933L382.703 350.173ZM369.192 285.427C372.2 269.566 382.73 257.137 401.947 248.3L398.187 240.123C377.031 249.852 364.031 264.341 360.35 283.75L369.192 285.427ZM401.947 248.3C421.03 239.524 437.164 239.467 450.964 247.112L455.326 239.239C438.388 229.856 419.137 230.489 398.187 240.123L401.947 248.3ZM450.977 247.118C465.078 254.871 478.502 271.38 490.901 297.679L499.041 293.841C486.332 266.884 471.872 248.336 455.313 239.232L450.977 247.118ZM490.883 297.64L504.983 328.303L513.16 324.543L499.06 293.88L490.883 297.64ZM474.66 303.088C465.363 282.872 455.423 268.646 444.538 261.404L439.553 268.897C448.293 274.713 457.37 287.031 466.483 306.848L474.66 303.088ZM444.554 261.414C433.211 253.8 420.502 253.388 407.118 259.543L410.878 267.72C421.854 262.673 431.176 263.274 439.537 268.887L444.554 261.414ZM407.118 259.543C393.823 265.657 385.919 275.493 384.367 288.948L393.307 289.98C394.446 280.116 399.983 272.73 410.878 267.72L407.118 259.543ZM384.367 288.948C382.882 301.82 386.867 318.046 395.501 337.278L403.712 333.592C395.297 314.849 392.102 300.428 393.307 289.98L384.367 288.948ZM395.518 337.315L412.909 375.133L421.086 371.373L403.695 333.555L395.518 337.315ZM412.909 375.133C422.262 395.471 432.416 409.908 443.656 417.566L448.724 410.128C439.528 403.863 430.221 391.237 421.086 371.373L412.909 375.133ZM443.695 417.592C455.346 425.353 468.064 426.077 481.225 420.024L477.465 411.847C466.947 416.684 457.562 416.015 448.685 410.102L443.695 417.592ZM481.225 420.024C494.142 414.084 501.831 404.358 503.518 391.031L494.589 389.901C493.336 399.802 487.886 407.055 477.465 411.847L481.225 420.024ZM503.514 391.061C505.236 378.153 501.261 361.618 492.486 341.854L484.26 345.507C492.835 364.818 495.98 379.474 494.593 389.871L503.514 391.061ZM492.462 341.8L474.66 303.088L466.483 306.848L484.285 345.56L492.462 341.8ZM646.89 283.477L642.802 285.357L644.682 289.446L648.77 287.566L646.89 283.477ZM672.698 271.609L676.787 269.729L674.907 265.64L670.818 267.521L672.698 271.609ZM681.57 290.901L683.45 294.99L687.539 293.11L685.659 289.021L681.57 290.901ZM655.762 302.769L653.882 298.681L649.793 300.561L651.673 304.649L655.762 302.769ZM675.62 345.953L677.5 350.042L681.589 348.162L679.709 344.073L675.62 345.953ZM651.856 356.882L647.768 358.762L649.648 362.85L653.736 360.97L651.856 356.882ZM631.998 313.697L636.086 311.817L634.206 307.729L630.118 309.609L631.998 313.697ZM547.291 352.651L543.202 354.531L545.082 358.619L549.171 356.739L547.291 352.651ZM540.887 338.724L536.433 338.085L536.244 339.399L536.798 340.605L540.887 338.724ZM564.907 171.504L563.027 167.416L560.801 168.439L560.453 170.864L564.907 171.504ZM590.077 159.93L594.165 158.05L592.285 153.961L588.196 155.841L590.077 159.93ZM565.249 321.02L560.792 320.402L559.662 328.543L567.13 325.109L565.249 321.02ZM623.126 294.405L625.006 298.494L629.095 296.613L627.215 292.525L623.126 294.405ZM581.177 203.182L585.265 201.302L576.689 202.859L581.177 203.182ZM580.716 209.585L585.174 210.204L585.194 210.056L585.205 209.908L580.716 209.585ZM648.77 287.566L674.579 275.697L670.818 267.521L645.01 279.389L648.77 287.566ZM668.61 273.489L677.482 292.781L685.659 289.021L676.787 269.729L668.61 273.489ZM679.69 286.813L653.882 298.681L657.642 306.858L683.45 294.99L679.69 286.813ZM651.673 304.649L671.532 347.834L679.709 344.073L659.85 300.889L651.673 304.649ZM673.74 341.865L649.976 352.793L653.736 360.97L677.5 350.042L673.74 341.865ZM655.945 355.001L636.086 311.817L627.909 315.578L647.768 358.762L655.945 355.001ZM630.118 309.609L545.411 348.562L549.171 356.739L633.878 317.786L630.118 309.609ZM551.379 350.771L544.975 336.844L536.798 340.605L543.202 354.531L551.379 350.771ZM545.341 339.364L569.361 172.144L560.453 170.864L536.433 338.085L545.341 339.364ZM566.787 175.593L591.957 164.018L588.196 155.841L563.027 167.416L566.787 175.593ZM585.988 161.81L642.802 285.357L650.979 281.597L594.165 158.05L585.988 161.81ZM567.13 325.109L625.006 298.494L621.246 290.317L563.369 316.932L567.13 325.109ZM627.215 292.525L585.265 201.302L577.089 205.062L619.038 296.285L627.215 292.525ZM576.689 202.859L576.228 209.262L585.205 209.908L585.665 203.505L576.689 202.859ZM576.259 208.966L560.792 320.402L569.707 321.639L585.174 210.204L576.259 208.966Z" fill="#00A5D9"/>
<path d="M353.035 418.609L348.946 420.489L350.826 424.578L354.915 422.697L353.035 418.609ZM378.843 406.741L382.931 404.861L381.051 400.772L376.963 402.652L378.843 406.741ZM387.714 426.033L389.594 430.122L393.683 428.242L391.803 424.153L387.714 426.033ZM361.906 437.901L360.026 433.813L355.938 435.693L357.818 439.781L361.906 437.901ZM381.765 481.085L383.645 485.174L387.733 483.294L385.853 479.205L381.765 481.085ZM358.001 492.013L353.912 493.894L355.792 497.982L359.881 496.102L358.001 492.013ZM338.142 448.829L342.231 446.949L340.351 442.861L336.262 444.741L338.142 448.829ZM253.435 487.783L249.347 489.663L251.227 493.751L255.315 491.871L253.435 487.783ZM247.031 473.856L242.577 473.217L242.388 474.531L242.943 475.737L247.031 473.856ZM271.051 306.636L269.171 302.548L266.946 303.571L266.597 305.996L271.051 306.636ZM296.221 295.062L300.309 293.182L298.429 289.093L294.341 290.973L296.221 295.062ZM271.394 456.152L266.937 455.534L265.807 463.675L273.274 460.241L271.394 456.152ZM329.271 429.537L331.151 433.626L335.239 431.745L333.359 427.657L329.271 429.537ZM287.321 338.314L291.41 336.434L282.833 337.991L287.321 338.314ZM286.861 344.717L291.318 345.336L291.338 345.188L291.349 345.04L286.861 344.717ZM354.915 422.697L380.723 410.829L376.963 402.652L351.154 414.521L354.915 422.697ZM374.754 408.621L383.626 427.913L391.803 424.153L382.931 404.861L374.754 408.621ZM385.834 421.945L360.026 433.813L363.786 441.99L389.594 430.122L385.834 421.945ZM357.818 439.781L377.676 482.966L385.853 479.205L365.995 436.021L357.818 439.781ZM379.884 476.997L356.121 487.925L359.881 496.102L383.645 485.174L379.884 476.997ZM362.089 490.133L342.231 446.949L334.054 450.709L353.912 493.894L362.089 490.133ZM336.262 444.741L251.555 483.694L255.315 491.871L340.022 452.918L336.262 444.741ZM257.524 485.903L251.12 471.976L242.943 475.737L249.347 489.663L257.524 485.903ZM251.485 474.496L275.506 307.276L266.597 305.996L242.577 473.217L251.485 474.496ZM272.932 310.724L298.101 299.15L294.341 290.973L269.171 302.548L272.932 310.724ZM292.132 296.942L348.946 420.489L357.123 416.729L300.309 293.182L292.132 296.942ZM273.274 460.241L331.151 433.626L327.39 425.449L269.514 452.064L273.274 460.241ZM333.359 427.657L291.41 336.434L283.233 340.194L325.182 431.417L333.359 427.657ZM282.833 337.991L282.372 344.394L291.349 345.04L291.81 338.637L282.833 337.991ZM282.403 344.098L266.937 455.534L275.851 456.771L291.318 345.336L282.403 344.098ZM435.09 435.822L432.878 439.741L432.89 439.748L435.09 435.822ZM393.126 383.611L389.038 385.491L389.05 385.518L389.063 385.544L393.126 383.611ZM453.145 243.175L450.964 247.112L450.971 247.115L450.977 247.118L453.145 243.175ZM494.971 295.76L499.06 293.88L499.051 293.86L499.041 293.841L494.971 295.76ZM442.045 265.151L439.537 268.887L439.545 268.892L439.553 268.897L442.045 265.151ZM399.607 335.435L395.501 337.278L395.51 337.296L395.518 337.315L399.607 335.435ZM446.19 413.847L443.656 417.566L443.676 417.579L443.695 417.592L446.19 413.847ZM499.053 390.466L494.593 389.871L494.591 389.886L494.589 389.901L499.053 390.466ZM488.373 343.68L492.486 341.854L492.474 341.827L492.462 341.8L488.373 343.68ZM504.983 328.303C517.564 355.661 521.861 377.381 518.841 393.842L527.694 395.466C531.206 376.316 526.039 352.549 513.16 324.543L504.983 328.303ZM518.841 393.842C515.9 409.878 505.441 422.354 486.337 431.14L490.097 439.317C511.195 429.614 524.103 415.041 527.694 395.466L518.841 393.842ZM486.337 431.14C467.47 439.816 451.322 439.763 437.291 431.897L432.89 439.748C450.002 449.342 469.271 448.893 490.097 439.317L486.337 431.14ZM437.303 431.904C422.854 423.745 409.378 407.299 397.19 381.678L389.063 385.544C401.605 411.908 416.105 430.269 432.878 439.741L437.303 431.904ZM397.215 381.731L382.703 350.173L374.526 353.933L389.038 385.491L397.215 381.731ZM382.703 350.173C370.282 323.163 366.105 301.708 369.192 285.427L360.35 283.75C356.749 302.739 361.801 326.261 374.526 353.933L382.703 350.173ZM369.192 285.427C372.2 269.566 382.73 257.137 401.947 248.3L398.187 240.123C377.031 249.852 364.031 264.341 360.35 283.75L369.192 285.427ZM401.947 248.3C421.03 239.524 437.164 239.467 450.964 247.112L455.326 239.239C438.388 229.856 419.137 230.489 398.187 240.123L401.947 248.3ZM450.977 247.118C465.078 254.871 478.502 271.38 490.901 297.679L499.041 293.841C486.332 266.884 471.872 248.336 455.313 239.232L450.977 247.118ZM490.883 297.64L504.983 328.303L513.16 324.543L499.06 293.88L490.883 297.64ZM474.66 303.088C465.363 282.872 455.423 268.646 444.538 261.404L439.553 268.897C448.293 274.713 457.37 287.031 466.483 306.848L474.66 303.088ZM444.554 261.414C433.211 253.8 420.502 253.388 407.118 259.543L410.878 267.72C421.854 262.673 431.176 263.274 439.537 268.887L444.554 261.414ZM407.118 259.543C393.823 265.657 385.919 275.493 384.367 288.948L393.307 289.98C394.446 280.116 399.983 272.73 410.878 267.72L407.118 259.543ZM384.367 288.948C382.882 301.82 386.867 318.046 395.501 337.278L403.712 333.592C395.297 314.849 392.102 300.428 393.307 289.98L384.367 288.948ZM395.518 337.315L412.909 375.133L421.086 371.373L403.695 333.555L395.518 337.315ZM412.909 375.133C422.262 395.471 432.416 409.908 443.656 417.566L448.724 410.128C439.528 403.863 430.221 391.237 421.086 371.373L412.909 375.133ZM443.695 417.592C455.346 425.353 468.064 426.077 481.225 420.024L477.465 411.847C466.947 416.684 457.562 416.015 448.685 410.102L443.695 417.592ZM481.225 420.024C494.142 414.084 501.831 404.358 503.518 391.031L494.589 389.901C493.336 399.802 487.886 407.055 477.465 411.847L481.225 420.024ZM503.514 391.061C505.236 378.153 501.261 361.618 492.486 341.854L484.26 345.507C492.835 364.818 495.98 379.474 494.593 389.871L503.514 391.061ZM492.462 341.8L474.66 303.088L466.483 306.848L484.285 345.56L492.462 341.8ZM646.89 283.477L642.802 285.357L644.682 289.446L648.77 287.566L646.89 283.477ZM672.698 271.609L676.787 269.729L674.907 265.64L670.818 267.521L672.698 271.609ZM681.57 290.901L683.45 294.99L687.539 293.11L685.659 289.021L681.57 290.901ZM655.762 302.769L653.882 298.681L649.793 300.561L651.673 304.649L655.762 302.769ZM675.62 345.953L677.5 350.042L681.589 348.162L679.709 344.073L675.62 345.953ZM651.856 356.882L647.768 358.762L649.648 362.85L653.736 360.97L651.856 356.882ZM631.998 313.697L636.086 311.817L634.206 307.729L630.118 309.609L631.998 313.697ZM547.291 352.651L543.202 354.531L545.082 358.619L549.171 356.739L547.291 352.651ZM540.887 338.724L536.433 338.085L536.244 339.399L536.798 340.605L540.887 338.724ZM564.907 171.504L563.027 167.416L560.801 168.439L560.453 170.864L564.907 171.504ZM590.077 159.93L594.165 158.05L592.285 153.961L588.196 155.841L590.077 159.93ZM565.249 321.02L560.792 320.402L559.662 328.543L567.13 325.109L565.249 321.02ZM623.126 294.405L625.006 298.494L629.095 296.613L627.215 292.525L623.126 294.405ZM581.177 203.182L585.265 201.302L576.689 202.859L581.177 203.182ZM580.716 209.585L585.174 210.204L585.194 210.056L585.205 209.908L580.716 209.585ZM648.77 287.566L674.579 275.697L670.818 267.521L645.01 279.389L648.77 287.566ZM668.61 273.489L677.482 292.781L685.659 289.021L676.787 269.729L668.61 273.489ZM679.69 286.813L653.882 298.681L657.642 306.858L683.45 294.99L679.69 286.813ZM651.673 304.649L671.532 347.834L679.709 344.073L659.85 300.889L651.673 304.649ZM673.74 341.865L649.976 352.793L653.736 360.97L677.5 350.042L673.74 341.865ZM655.945 355.001L636.086 311.817L627.909 315.578L647.768 358.762L655.945 355.001ZM630.118 309.609L545.411 348.562L549.171 356.739L633.878 317.786L630.118 309.609ZM551.379 350.771L544.975 336.844L536.798 340.605L543.202 354.531L551.379 350.771ZM545.341 339.364L569.361 172.144L560.453 170.864L536.433 338.085L545.341 339.364ZM566.787 175.593L591.957 164.018L588.196 155.841L563.027 167.416L566.787 175.593ZM585.988 161.81L642.802 285.357L650.979 281.597L594.165 158.05L585.988 161.81ZM567.13 325.109L625.006 298.494L621.246 290.317L563.369 316.932L567.13 325.109ZM627.215 292.525L585.265 201.302L577.089 205.062L619.038 296.285L627.215 292.525ZM576.689 202.859L576.228 209.262L585.205 209.908L585.665 203.505L576.689 202.859ZM576.259 208.966L560.792 320.402L569.707 321.639L585.174 210.204L576.259 208.966Z" fill="url(#paint0_linear)"/>
<path d="M353.035 418.609L348.946 420.489L350.826 424.578L354.915 422.697L353.035 418.609ZM378.843 406.741L382.931 404.861L381.051 400.772L376.963 402.652L378.843 406.741ZM387.714 426.033L389.594 430.122L393.683 428.242L391.803 424.153L387.714 426.033ZM361.906 437.901L360.026 433.813L355.938 435.693L357.818 439.781L361.906 437.901ZM381.765 481.085L383.645 485.174L387.733 483.294L385.853 479.205L381.765 481.085ZM358.001 492.013L353.912 493.894L355.792 497.982L359.881 496.102L358.001 492.013ZM338.142 448.829L342.231 446.949L340.351 442.861L336.262 444.741L338.142 448.829ZM253.435 487.783L249.347 489.663L251.227 493.751L255.315 491.871L253.435 487.783ZM247.031 473.856L242.577 473.217L242.388 474.531L242.943 475.737L247.031 473.856ZM271.051 306.636L269.171 302.548L266.946 303.571L266.597 305.996L271.051 306.636ZM296.221 295.062L300.309 293.182L298.429 289.093L294.341 290.973L296.221 295.062ZM271.394 456.152L266.937 455.534L265.807 463.675L273.274 460.241L271.394 456.152ZM329.271 429.537L331.151 433.626L335.239 431.745L333.359 427.657L329.271 429.537ZM287.321 338.314L291.41 336.434L282.833 337.991L287.321 338.314ZM286.861 344.717L291.318 345.336L291.338 345.188L291.349 345.04L286.861 344.717ZM354.915 422.697L380.723 410.829L376.963 402.652L351.154 414.521L354.915 422.697ZM374.754 408.621L383.626 427.913L391.803 424.153L382.931 404.861L374.754 408.621ZM385.834 421.945L360.026 433.813L363.786 441.99L389.594 430.122L385.834 421.945ZM357.818 439.781L377.676 482.966L385.853 479.205L365.995 436.021L357.818 439.781ZM379.884 476.997L356.121 487.925L359.881 496.102L383.645 485.174L379.884 476.997ZM362.089 490.133L342.231 446.949L334.054 450.709L353.912 493.894L362.089 490.133ZM336.262 444.741L251.555 483.694L255.315 491.871L340.022 452.918L336.262 444.741ZM257.524 485.903L251.12 471.976L242.943 475.737L249.347 489.663L257.524 485.903ZM251.485 474.496L275.506 307.276L266.597 305.996L242.577 473.217L251.485 474.496ZM272.932 310.724L298.101 299.15L294.341 290.973L269.171 302.548L272.932 310.724ZM292.132 296.942L348.946 420.489L357.123 416.729L300.309 293.182L292.132 296.942ZM273.274 460.241L331.151 433.626L327.39 425.449L269.514 452.064L273.274 460.241ZM333.359 427.657L291.41 336.434L283.233 340.194L325.182 431.417L333.359 427.657ZM282.833 337.991L282.372 344.394L291.349 345.04L291.81 338.637L282.833 337.991ZM282.403 344.098L266.937 455.534L275.851 456.771L291.318 345.336L282.403 344.098ZM435.09 435.822L432.878 439.741L432.89 439.748L435.09 435.822ZM393.126 383.611L389.038 385.491L389.05 385.518L389.063 385.544L393.126 383.611ZM453.145 243.175L450.964 247.112L450.971 247.115L450.977 247.118L453.145 243.175ZM494.971 295.76L499.06 293.88L499.051 293.86L499.041 293.841L494.971 295.76ZM442.045 265.151L439.537 268.887L439.545 268.892L439.553 268.897L442.045 265.151ZM399.607 335.435L395.501 337.278L395.51 337.296L395.518 337.315L399.607 335.435ZM446.19 413.847L443.656 417.566L443.676 417.579L443.695 417.592L446.19 413.847ZM499.053 390.466L494.593 389.871L494.591 389.886L494.589 389.901L499.053 390.466ZM488.373 343.68L492.486 341.854L492.474 341.827L492.462 341.8L488.373 343.68ZM504.983 328.303C517.564 355.661 521.861 377.381 518.841 393.842L527.694 395.466C531.206 376.316 526.039 352.549 513.16 324.543L504.983 328.303ZM518.841 393.842C515.9 409.878 505.441 422.354 486.337 431.14L490.097 439.317C511.195 429.614 524.103 415.041 527.694 395.466L518.841 393.842ZM486.337 431.14C467.47 439.816 451.322 439.763 437.291 431.897L432.89 439.748C450.002 449.342 469.271 448.893 490.097 439.317L486.337 431.14ZM437.303 431.904C422.854 423.745 409.378 407.299 397.19 381.678L389.063 385.544C401.605 411.908 416.105 430.269 432.878 439.741L437.303 431.904ZM397.215 381.731L382.703 350.173L374.526 353.933L389.038 385.491L397.215 381.731ZM382.703 350.173C370.282 323.163 366.105 301.708 369.192 285.427L360.35 283.75C356.749 302.739 361.801 326.261 374.526 353.933L382.703 350.173ZM369.192 285.427C372.2 269.566 382.73 257.137 401.947 248.3L398.187 240.123C377.031 249.852 364.031 264.341 360.35 283.75L369.192 285.427ZM401.947 248.3C421.03 239.524 437.164 239.467 450.964 247.112L455.326 239.239C438.388 229.856 419.137 230.489 398.187 240.123L401.947 248.3ZM450.977 247.118C465.078 254.871 478.502 271.38 490.901 297.679L499.041 293.841C486.332 266.884 471.872 248.336 455.313 239.232L450.977 247.118ZM490.883 297.64L504.983 328.303L513.16 324.543L499.06 293.88L490.883 297.64ZM474.66 303.088C465.363 282.872 455.423 268.646 444.538 261.404L439.553 268.897C448.293 274.713 457.37 287.031 466.483 306.848L474.66 303.088ZM444.554 261.414C433.211 253.8 420.502 253.388 407.118 259.543L410.878 267.72C421.854 262.673 431.176 263.274 439.537 268.887L444.554 261.414ZM407.118 259.543C393.823 265.657 385.919 275.493 384.367 288.948L393.307 289.98C394.446 280.116 399.983 272.73 410.878 267.72L407.118 259.543ZM384.367 288.948C382.882 301.82 386.867 318.046 395.501 337.278L403.712 333.592C395.297 314.849 392.102 300.428 393.307 289.98L384.367 288.948ZM395.518 337.315L412.909 375.133L421.086 371.373L403.695 333.555L395.518 337.315ZM412.909 375.133C422.262 395.471 432.416 409.908 443.656 417.566L448.724 410.128C439.528 403.863 430.221 391.237 421.086 371.373L412.909 375.133ZM443.695 417.592C455.346 425.353 468.064 426.077 481.225 420.024L477.465 411.847C466.947 416.684 457.562 416.015 448.685 410.102L443.695 417.592ZM481.225 420.024C494.142 414.084 501.831 404.358 503.518 391.031L494.589 389.901C493.336 399.802 487.886 407.055 477.465 411.847L481.225 420.024ZM503.514 391.061C505.236 378.153 501.261 361.618 492.486 341.854L484.26 345.507C492.835 364.818 495.98 379.474 494.593 389.871L503.514 391.061ZM492.462 341.8L474.66 303.088L466.483 306.848L484.285 345.56L492.462 341.8ZM646.89 283.477L642.802 285.357L644.682 289.446L648.77 287.566L646.89 283.477ZM672.698 271.609L676.787 269.729L674.907 265.64L670.818 267.521L672.698 271.609ZM681.57 290.901L683.45 294.99L687.539 293.11L685.659 289.021L681.57 290.901ZM655.762 302.769L653.882 298.681L649.793 300.561L651.673 304.649L655.762 302.769ZM675.62 345.953L677.5 350.042L681.589 348.162L679.709 344.073L675.62 345.953ZM651.856 356.882L647.768 358.762L649.648 362.85L653.736 360.97L651.856 356.882ZM631.998 313.697L636.086 311.817L634.206 307.729L630.118 309.609L631.998 313.697ZM547.291 352.651L543.202 354.531L545.082 358.619L549.171 356.739L547.291 352.651ZM540.887 338.724L536.433 338.085L536.244 339.399L536.798 340.605L540.887 338.724ZM564.907 171.504L563.027 167.416L560.801 168.439L560.453 170.864L564.907 171.504ZM590.077 159.93L594.165 158.05L592.285 153.961L588.196 155.841L590.077 159.93ZM565.249 321.02L560.792 320.402L559.662 328.543L567.13 325.109L565.249 321.02ZM623.126 294.405L625.006 298.494L629.095 296.613L627.215 292.525L623.126 294.405ZM581.177 203.182L585.265 201.302L576.689 202.859L581.177 203.182ZM580.716 209.585L585.174 210.204L585.194 210.056L585.205 209.908L580.716 209.585ZM648.77 287.566L674.579 275.697L670.818 267.521L645.01 279.389L648.77 287.566ZM668.61 273.489L677.482 292.781L685.659 289.021L676.787 269.729L668.61 273.489ZM679.69 286.813L653.882 298.681L657.642 306.858L683.45 294.99L679.69 286.813ZM651.673 304.649L671.532 347.834L679.709 344.073L659.85 300.889L651.673 304.649ZM673.74 341.865L649.976 352.793L653.736 360.97L677.5 350.042L673.74 341.865ZM655.945 355.001L636.086 311.817L627.909 315.578L647.768 358.762L655.945 355.001ZM630.118 309.609L545.411 348.562L549.171 356.739L633.878 317.786L630.118 309.609ZM551.379 350.771L544.975 336.844L536.798 340.605L543.202 354.531L551.379 350.771ZM545.341 339.364L569.361 172.144L560.453 170.864L536.433 338.085L545.341 339.364ZM566.787 175.593L591.957 164.018L588.196 155.841L563.027 167.416L566.787 175.593ZM585.988 161.81L642.802 285.357L650.979 281.597L594.165 158.05L585.988 161.81ZM567.13 325.109L625.006 298.494L621.246 290.317L563.369 316.932L567.13 325.109ZM627.215 292.525L585.265 201.302L577.089 205.062L619.038 296.285L627.215 292.525ZM576.689 202.859L576.228 209.262L585.205 209.908L585.665 203.505L576.689 202.859ZM576.259 208.966L560.792 320.402L569.707 321.639L585.174 210.204L576.259 208.966Z" fill="url(#paint1_linear)"/>
<defs>
<linearGradient id="paint0_linear" x1="395.834" y1="234.67" x2="496.106" y2="452.719" gradientUnits="userSpaceOnUse">
<stop stop-color="#9FE8FF"/>
<stop offset="1" stop-color="white" stop-opacity="0"/>
</linearGradient>
<linearGradient id="paint1_linear" x1="395.834" y1="234.67" x2="496.106" y2="452.719" gradientUnits="userSpaceOnUse">
<stop stop-color="#1A9EE9"/>
<stop offset="1" stop-color="white" stop-opacity="0"/>
</linearGradient>
</defs>
</svg>
