<svg width="657" height="659" viewBox="0 0 657 659" fill="none" xmlns="http://www.w3.org/2000/svg">
<path d="M284.64 481.521C282.852 487.861 280.955 494.738 275.646 498.639C226.657 534.635 19.6883 336.204 36.7589 403.378C54.717 474.043 97.7952 535.75 157.941 576.963C218.087 618.176 291.183 636.075 363.566 627.314C435.948 618.552 502.663 583.73 551.238 529.356C599.813 474.983 626.925 404.78 627.504 331.87C628.083 258.961 602.09 188.337 554.384 133.198C506.679 78.06 440.526 42.1824 368.291 32.2721C329.429 26.9404 290.239 29.321 252.854 38.9268C199.364 52.6711 186.61 116.68 217.1 162.729L302.205 291.262C318.274 315.531 322.972 345.598 315.072 373.612L284.64 481.521Z" fill="#678857"/>
<rect x="144.963" y="372.65" width="406.032" height="184.836" transform="rotate(-5.92566 144.963 372.65)" fill="#C4C4C4"/>
<rect x="119.97" y="131.858" width="406.032" height="242.085" transform="rotate(-5.92566 119.97 131.858)" fill="#1C1C1C"/>
<rect x="130.263" y="143.946" width="388.052" height="217.55" transform="rotate(-5.92566 130.263 143.946)" fill="#F1F1F1"/>
<rect x="133.395" y="551.457" width="435.997" height="39.2571" transform="rotate(-5.92566 133.395 551.457)" fill="#B8B8B8"/>
<rect x="119.21" y="414.791" width="29.9654" height="137.4" transform="rotate(-5.92566 119.21 414.791)" fill="#B8B8B8"/>
<path d="M119.21 414.791L144.811 370.833L153.294 452.555L119.21 414.791Z" fill="#B8B8B8"/>
<rect x="434.963" y="394.745" width="44.9482" height="10.241" transform="rotate(-5.92566 434.963 394.745)" fill="#B8B8B8"/>
<rect x="432.32" y="369.28" width="8.17239" height="35.8434" transform="rotate(-5.92566 432.32 369.28)" fill="#B8B8B8"/>
<path d="M432.276 368.855L439.362 356.974L441.651 379.028L432.276 368.855Z" fill="#B8B8B8"/>
<rect x="490.103" y="389.022" width="44.9482" height="10.241" transform="rotate(-5.92566 490.103 389.022)" fill="#B8B8B8"/>
<rect x="487.46" y="363.557" width="8.17239" height="35.8434" transform="rotate(-5.92566 487.46 363.557)" fill="#B8B8B8"/>
<path d="M487.416 363.132L494.501 351.251L496.79 373.305L487.416 363.132Z" fill="#B8B8B8"/>
<rect x="495.338" y="439.458" width="44.9482" height="10.241" transform="rotate(-5.92566 495.338 439.458)" fill="#B8B8B8"/>
<rect x="492.695" y="413.993" width="8.17239" height="35.8434" transform="rotate(-5.92566 492.695 413.993)" fill="#B8B8B8"/>
<path d="M492.651 413.568L499.737 401.687L502.026 423.741L492.651 413.568Z" fill="#B8B8B8"/>
<rect x="379.823" y="400.469" width="44.9482" height="10.241" transform="rotate(-5.92566 379.823 400.469)" fill="#B8B8B8"/>
<rect x="377.18" y="375.003" width="8.17239" height="35.8434" transform="rotate(-5.92566 377.18 375.003)" fill="#B8B8B8"/>
<path d="M377.136 374.578L384.222 362.697L386.511 384.751L377.136 374.578Z" fill="#B8B8B8"/>
<rect x="440.198" y="445.182" width="44.9482" height="10.241" transform="rotate(-5.92566 440.198 445.182)" fill="#B8B8B8"/>
<rect x="437.555" y="419.716" width="8.17239" height="35.8434" transform="rotate(-5.92566 437.555 419.716)" fill="#B8B8B8"/>
<path d="M437.511 419.291L444.597 407.41L446.886 429.464L437.511 419.291Z" fill="#B8B8B8"/>
<rect x="385.058" y="450.905" width="44.9482" height="10.241" transform="rotate(-5.92566 385.058 450.905)" fill="#B8B8B8"/>
<rect x="382.415" y="425.439" width="8.17239" height="35.8434" transform="rotate(-5.92566 382.415 425.439)" fill="#B8B8B8"/>
<path d="M382.371 425.015L389.457 413.133L391.746 435.187L382.371 425.015Z" fill="#B8B8B8"/>
<rect x="324.683" y="406.192" width="44.9482" height="10.241" transform="rotate(-5.92566 324.683 406.192)" fill="#B8B8B8"/>
<rect x="322.04" y="380.726" width="8.17239" height="35.8434" transform="rotate(-5.92566 322.04 380.726)" fill="#B8B8B8"/>
<path d="M321.996 380.302L329.082 368.42L331.371 390.474L321.996 380.302Z" fill="#B8B8B8"/>
<rect x="329.918" y="456.628" width="44.9482" height="10.241" transform="rotate(-5.92566 329.918 456.628)" fill="#B8B8B8"/>
<rect x="327.275" y="431.162" width="8.17239" height="35.8434" transform="rotate(-5.92566 327.275 431.162)" fill="#B8B8B8"/>
<path d="M327.231 430.738L334.317 418.856L336.606 440.91L327.231 430.738Z" fill="#B8B8B8"/>
<rect x="335.153" y="507.064" width="44.9482" height="10.241" transform="rotate(-5.92566 335.153 507.064)" fill="#B8B8B8"/>
<rect x="332.51" y="481.598" width="8.17239" height="35.8434" transform="rotate(-5.92566 332.51 481.598)" fill="#B8B8B8"/>
<path d="M332.466 481.174L339.552 469.293L341.841 491.347L332.466 481.174Z" fill="#B8B8B8"/>
<rect x="500.573" y="489.895" width="44.9482" height="10.241" transform="rotate(-5.92566 500.573 489.895)" fill="#B8B8B8"/>
<rect x="497.93" y="464.429" width="8.17239" height="35.8434" transform="rotate(-5.92566 497.93 464.429)" fill="#B8B8B8"/>
<path d="M497.885 464.005L504.971 452.123L507.26 474.177L497.885 464.005Z" fill="#B8B8B8"/>
<rect x="269.543" y="411.915" width="44.9482" height="10.241" transform="rotate(-5.92566 269.543 411.915)" fill="#B8B8B8"/>
<rect x="266.9" y="386.449" width="8.17239" height="35.8434" transform="rotate(-5.92566 266.9 386.449)" fill="#B8B8B8"/>
<path d="M266.856 386.025L273.942 374.143L276.231 396.197L266.856 386.025Z" fill="#B8B8B8"/>
<rect x="274.778" y="462.351" width="44.9482" height="10.241" transform="rotate(-5.92566 274.778 462.351)" fill="#B8B8B8"/>
<rect x="272.135" y="436.885" width="8.17239" height="35.8434" transform="rotate(-5.92566 272.135 436.885)" fill="#B8B8B8"/>
<path d="M272.091 436.461L279.177 424.58L281.466 446.634L272.091 436.461Z" fill="#B8B8B8"/>
<rect x="280.013" y="512.787" width="44.9482" height="10.241" transform="rotate(-5.92566 280.013 512.787)" fill="#B8B8B8"/>
<rect x="277.37" y="487.321" width="8.17239" height="35.8434" transform="rotate(-5.92566 277.37 487.321)" fill="#B8B8B8"/>
<path d="M277.326 486.897L284.412 475.016L286.701 497.07L277.326 486.897Z" fill="#B8B8B8"/>
<rect x="445.433" y="495.618" width="44.9482" height="10.241" transform="rotate(-5.92566 445.433 495.618)" fill="#B8B8B8"/>
<rect x="442.79" y="470.152" width="8.17239" height="35.8434" transform="rotate(-5.92566 442.79 470.152)" fill="#B8B8B8"/>
<path d="M442.746 469.728L449.831 457.846L452.12 479.9L442.746 469.728Z" fill="#B8B8B8"/>
<rect x="214.404" y="417.638" width="44.9482" height="10.241" transform="rotate(-5.92566 214.404 417.638)" fill="#B8B8B8"/>
<rect x="211.76" y="392.172" width="8.17239" height="35.8434" transform="rotate(-5.92566 211.76 392.172)" fill="#B8B8B8"/>
<path d="M211.716 391.748L218.802 379.867L221.091 401.92L211.716 391.748Z" fill="#B8B8B8"/>
<rect x="219.639" y="468.074" width="44.9482" height="10.241" transform="rotate(-5.92566 219.639 468.074)" fill="#B8B8B8"/>
<rect x="216.995" y="442.608" width="8.17239" height="35.8434" transform="rotate(-5.92566 216.995 442.608)" fill="#B8B8B8"/>
<path d="M216.951 442.184L224.037 430.303L226.326 452.357L216.951 442.184Z" fill="#B8B8B8"/>
<rect x="224.873" y="518.51" width="44.9482" height="10.241" transform="rotate(-5.92566 224.873 518.51)" fill="#B8B8B8"/>
<rect x="222.23" y="493.045" width="8.17239" height="35.8434" transform="rotate(-5.92566 222.23 493.045)" fill="#B8B8B8"/>
<path d="M222.186 492.62L229.272 480.739L231.561 502.793L222.186 492.62Z" fill="#B8B8B8"/>
<rect x="390.293" y="501.341" width="44.9482" height="10.241" transform="rotate(-5.92566 390.293 501.341)" fill="#B8B8B8"/>
<rect x="387.65" y="475.875" width="8.17239" height="35.8434" transform="rotate(-5.92566 387.65 475.875)" fill="#B8B8B8"/>
<path d="M387.606 475.451L394.691 463.57L396.981 485.623L387.606 475.451Z" fill="#B8B8B8"/>
<rect x="162.244" y="423.052" width="44.9482" height="10.241" transform="rotate(-5.92566 162.244 423.052)" fill="#B8B8B8"/>
<rect x="159.601" y="397.586" width="8.17239" height="35.8434" transform="rotate(-5.92566 159.601 397.586)" fill="#B8B8B8"/>
<path d="M159.557 397.162L166.643 385.28L168.932 407.334L159.557 397.162Z" fill="#B8B8B8"/>
<rect x="167.479" y="473.488" width="44.9482" height="10.241" transform="rotate(-5.92566 167.479 473.488)" fill="#B8B8B8"/>
<rect x="164.836" y="448.022" width="8.17239" height="35.8434" transform="rotate(-5.92566 164.836 448.022)" fill="#B8B8B8"/>
<path d="M164.792 447.598L171.878 435.716L174.167 457.77L164.792 447.598Z" fill="#B8B8B8"/>
<rect x="172.714" y="523.924" width="44.9482" height="10.241" transform="rotate(-5.92566 172.714 523.924)" fill="#B8B8B8"/>
<rect x="170.071" y="498.458" width="8.17239" height="35.8434" transform="rotate(-5.92566 170.071 498.458)" fill="#B8B8B8"/>
<path d="M170.027 498.034L177.113 486.153L179.402 508.206L170.027 498.034Z" fill="#B8B8B8"/>
<rect x="438.923" y="357.433" width="37.307" height="36.8035" transform="rotate(-5.92566 438.923 357.433)" fill="#D4D4D4"/>
<rect x="494.063" y="351.71" width="37.307" height="36.8035" transform="rotate(-5.92566 494.063 351.71)" fill="#D4D4D4"/>
<rect x="499.298" y="402.146" width="37.307" height="36.8035" transform="rotate(-5.92566 499.298 402.146)" fill="#D4D4D4"/>
<rect x="383.783" y="363.156" width="37.307" height="36.8035" transform="rotate(-5.92566 383.783 363.156)" fill="#D4D4D4"/>
<rect x="444.158" y="407.869" width="37.307" height="36.8035" transform="rotate(-5.92566 444.158 407.869)" fill="#D4D4D4"/>
<rect x="388.968" y="413.104" width="37.307" height="36.8035" transform="rotate(-5.92566 388.968 413.104)" fill="#D4D4D4"/>
<rect x="328.644" y="368.879" width="37.307" height="36.8035" transform="rotate(-5.92566 328.644 368.879)" fill="#D4D4D4"/>
<rect x="333.878" y="419.316" width="37.307" height="36.8035" transform="rotate(-5.92566 333.878 419.316)" fill="#D4D4D4"/>
<rect x="339.113" y="469.752" width="37.307" height="36.8035" transform="rotate(-5.92566 339.113 469.752)" fill="#D4D4D4"/>
<rect x="504.533" y="452.582" width="37.307" height="36.8035" transform="rotate(-5.92566 504.533 452.582)" fill="#D4D4D4"/>
<rect x="273.504" y="374.603" width="37.307" height="36.8035" transform="rotate(-5.92566 273.504 374.603)" fill="#D4D4D4"/>
<rect x="278.738" y="425.039" width="37.307" height="36.8035" transform="rotate(-5.92566 278.738 425.039)" fill="#D4D4D4"/>
<rect x="283.974" y="475.475" width="37.307" height="36.8035" transform="rotate(-5.92566 283.974 475.475)" fill="#D4D4D4"/>
<rect x="449.393" y="458.306" width="37.307" height="36.8035" transform="rotate(-5.92566 449.393 458.306)" fill="#D4D4D4"/>
<rect x="218.364" y="380.326" width="37.307" height="36.8035" transform="rotate(-5.92566 218.364 380.326)" fill="#D4D4D4"/>
<rect x="223.599" y="430.762" width="37.307" height="36.8035" transform="rotate(-5.92566 223.599 430.762)" fill="#D4D4D4"/>
<rect x="228.834" y="481.198" width="37.307" height="36.8035" transform="rotate(-5.92566 228.834 481.198)" fill="#D4D4D4"/>
<rect x="394.253" y="464.029" width="37.307" height="36.8035" transform="rotate(-5.92566 394.253 464.029)" fill="#D4D4D4"/>
<rect x="166.204" y="385.739" width="37.307" height="36.8035" transform="rotate(-5.92566 166.204 385.739)" fill="#D5D5D5"/>
<rect x="171.439" y="436.176" width="37.307" height="36.8035" transform="rotate(-5.92566 171.439 436.176)" fill="#D5D5D5"/>
<rect x="176.674" y="486.612" width="37.307" height="36.8035" transform="rotate(-5.92566 176.674 486.612)" fill="#D5D5D5"/>
<path d="M410.774 388.614L408.525 388.847L398.623 376.656L399.981 389.734L397.731 389.967L395.97 372.996L398.219 372.763L408.15 385.01L406.786 371.873L409.013 371.642L410.774 388.614Z" fill="black"/>
<path d="M463.031 376.464L457.342 377.054L457.16 375.294L462.848 374.703L463.031 376.464Z" fill="black"/>
<path d="M359.77 436.465L352.415 437.228L353.039 443.243L361.583 442.356L361.773 444.186L350.991 445.305L349.229 428.334L359.895 427.227L360.086 429.068L351.659 429.943L352.225 435.398L359.58 434.635L359.77 436.465Z" fill="black"/>
<path d="M349.206 387.571L345.22 387.985L345.933 394.85L343.683 395.084L341.921 378.113L347.54 377.529C349.451 377.331 350.965 377.614 352.081 378.378C353.205 379.141 353.853 380.354 354.026 382.017C354.136 383.073 353.944 384.024 353.45 384.869C352.964 385.712 352.232 386.381 351.255 386.876L355.989 393.665L356.003 393.805L353.602 394.054L349.206 387.571ZM345.03 386.155L348.469 385.798C349.58 385.683 350.432 385.304 351.025 384.661C351.626 384.017 351.876 383.214 351.776 382.25C351.667 381.201 351.269 380.429 350.582 379.935C349.902 379.44 348.971 379.25 347.789 379.365L344.362 379.721L345.03 386.155Z" fill="black"/>
<path d="M294.751 450.649L292.99 433.677L297.781 433.18C299.257 433.027 300.596 433.218 301.799 433.753C303.001 434.288 303.972 435.126 304.71 436.266C305.457 437.406 305.915 438.757 306.085 440.318L306.198 441.402C306.364 443.003 306.199 444.438 305.702 445.707C305.213 446.975 304.427 447.991 303.344 448.756C302.269 449.519 300.97 449.988 299.449 450.161L294.751 450.649ZM295.419 435.287L296.799 448.587L299.154 448.342C300.879 448.163 302.164 447.488 303.008 446.316C303.861 445.144 304.184 443.567 303.978 441.585L303.875 440.595C303.675 438.667 303.066 437.219 302.046 436.248C301.033 435.27 299.695 434.859 298.03 435.016L295.419 435.287Z" fill="black"/>
<path d="M296.985 394.961L289.874 395.699L288.737 400.294L286.429 400.533L291.149 382.889L293.107 382.686L301.361 398.983L299.064 399.222L296.985 394.961ZM290.359 393.787L296.129 393.188L292.414 385.55L290.359 393.787Z" fill="black"/>
<path d="M309.882 492.787L302.527 493.55L303.151 499.565L311.695 498.678L311.885 500.508L301.103 501.627L299.341 484.656L310.007 483.549L310.198 485.39L301.77 486.265L302.337 491.72L309.692 490.957L309.882 492.787Z" fill="black"/>
<path d="M251.419 446.63C251.591 448.293 251.463 449.775 251.032 451.076C250.601 452.37 249.906 453.396 248.948 454.155C247.99 454.915 246.827 455.365 245.46 455.507C244.123 455.646 242.904 455.443 241.803 454.897C240.701 454.344 239.799 453.491 239.099 452.338C238.405 451.177 237.967 449.797 237.785 448.198L237.658 446.974C237.489 445.342 237.623 443.871 238.06 442.561C238.498 441.251 239.199 440.212 240.164 439.445C241.136 438.668 242.29 438.211 243.627 438.072C244.986 437.931 246.217 438.137 247.319 438.69C248.429 439.235 249.328 440.104 250.017 441.297C250.706 442.482 251.136 443.902 251.308 445.557L251.419 446.63ZM249.079 445.765C248.87 443.753 248.306 442.252 247.386 441.263C246.466 440.267 245.279 439.845 243.826 439.995C242.412 440.142 241.353 440.798 240.649 441.963C239.952 443.119 239.691 444.654 239.866 446.568L239.996 447.815C240.198 449.766 240.766 451.258 241.698 452.293C242.637 453.318 243.825 453.756 245.263 453.607C246.708 453.457 247.772 452.817 248.456 451.685C249.139 450.546 249.39 448.992 249.209 447.024L249.079 445.765Z" fill="black"/>
<path d="M242.664 396.653L235.309 397.417L235.933 403.431L244.477 402.544L244.667 404.374L233.885 405.493L232.123 388.522L242.789 387.415L242.98 389.257L234.552 390.132L235.119 395.587L242.474 394.823L242.664 396.653Z" fill="black"/>
<path d="M243.455 490.456L250.441 503.728L254.552 489.304L257.454 489.003L259.216 505.974L256.978 506.207L256.292 499.598L255.761 492.442L251.616 506.763L249.903 506.941L242.92 493.811L243.878 500.886L244.564 507.495L242.326 507.728L240.565 490.756L243.455 490.456Z" fill="black"/>
<path d="M199.334 454.123C199.31 455.94 198.79 457.396 197.773 458.491C196.762 459.577 195.332 460.217 193.483 460.409C191.478 460.617 189.795 460.065 188.433 458.753C187.08 457.441 186.278 455.58 186.028 453.171L185.858 451.539C185.695 449.962 185.83 448.546 186.266 447.291C186.709 446.035 187.414 445.035 188.381 444.291C189.348 443.538 190.511 443.092 191.871 442.951C193.674 442.763 195.172 443.119 196.364 444.016C197.556 444.905 198.334 446.231 198.697 447.992L196.448 448.225C196.113 446.893 195.588 445.958 194.872 445.42C194.165 444.88 193.228 444.671 192.062 444.792C190.632 444.941 189.564 445.586 188.858 446.727C188.16 447.868 187.912 449.413 188.114 451.364L188.285 453.007C188.476 454.849 189.013 456.274 189.895 457.282C190.777 458.29 191.91 458.722 193.293 458.579C194.536 458.45 195.459 458.071 196.062 457.443C196.671 456.806 197.012 455.777 197.084 454.356L199.334 454.123Z" fill="black"/>
<path d="M184.096 408.318L192.139 407.483L192.329 409.313L182.036 410.382L180.275 393.41L182.524 393.177L184.096 408.318Z" fill="black"/>
<path d="M197.032 511.286C196.993 510.913 197.069 510.591 197.261 510.32C197.461 510.047 197.782 509.888 198.225 509.842C198.668 509.797 199.015 509.886 199.266 510.111C199.525 510.336 199.674 510.635 199.713 511.008C199.75 511.365 199.664 511.676 199.456 511.941C199.256 512.206 198.934 512.361 198.491 512.407C198.048 512.453 197.702 512.367 197.451 512.15C197.209 511.931 197.069 511.643 197.032 511.286Z" fill="black"/>
<rect x="140.724" y="157.661" width="113.869" height="16.3571" rx="8.17856" transform="rotate(-5.92566 140.724 157.661)" fill="#0BF54D"/>
<rect x="143.595" y="185.319" width="137.841" height="16.3571" rx="8.17856" transform="rotate(-5.92566 143.595 185.319)" fill="#0BF54D"/>
<rect x="146.466" y="212.978" width="130.35" height="16.3571" rx="8.17856" transform="rotate(-5.92566 146.466 212.978)" fill="#0BF54D"/>
<rect x="149.336" y="240.636" width="65.924" height="16.3571" rx="8.17856" transform="rotate(-5.92566 149.336 240.636)" fill="#0BF54D"/>
</svg>
