<svg width="891" height="683" viewBox="0 0 891 683" fill="none" xmlns="http://www.w3.org/2000/svg">
<path d="M401.267 493.521C399.479 499.861 397.582 506.738 392.273 510.639C343.283 546.635 136.315 348.204 153.386 415.378C171.344 486.043 214.422 547.75 274.568 588.963C334.713 630.176 407.81 648.075 480.192 639.314C552.575 630.552 619.29 595.73 667.865 541.356C716.44 486.983 743.552 416.78 744.131 343.87C744.71 270.961 718.717 200.337 671.011 145.198C623.306 90.06 557.152 54.1824 484.918 44.2721C446.056 38.9404 406.865 41.321 369.481 50.9268C315.991 64.6711 303.237 128.68 333.727 174.729L418.832 303.262C434.901 327.531 439.599 357.598 431.699 385.612L401.267 493.521Z" fill="#D600DB"/>
<rect x="261.589" y="384.65" width="406.032" height="184.836" transform="rotate(-5.92566 261.589 384.65)" fill="#C4C4C4"/>
<rect x="236.597" y="143.858" width="406.032" height="242.085" transform="rotate(-5.92566 236.597 143.858)" fill="#1C1C1C"/>
<rect x="246.889" y="155.946" width="388.052" height="217.55" transform="rotate(-5.92566 246.889 155.946)" fill="#F1F1F1"/>
<rect x="250.022" y="563.457" width="435.997" height="39.2571" transform="rotate(-5.92566 250.022 563.457)" fill="#B8B8B8"/>
<rect x="235.837" y="426.791" width="29.9654" height="137.4" transform="rotate(-5.92566 235.837 426.791)" fill="#B8B8B8"/>
<path d="M235.837 426.791L261.438 382.833L269.92 464.555L235.837 426.791Z" fill="#B8B8B8"/>
<rect x="551.59" y="406.745" width="44.9482" height="10.241" transform="rotate(-5.92566 551.59 406.745)" fill="#B8B8B8"/>
<rect x="548.947" y="381.28" width="8.17239" height="35.8434" transform="rotate(-5.92566 548.947 381.28)" fill="#B8B8B8"/>
<path d="M548.902 380.855L555.988 368.974L558.277 391.028L548.902 380.855Z" fill="#B8B8B8"/>
<rect x="606.73" y="401.022" width="44.9482" height="10.241" transform="rotate(-5.92566 606.73 401.022)" fill="#B8B8B8"/>
<rect x="604.087" y="375.557" width="8.17239" height="35.8434" transform="rotate(-5.92566 604.087 375.557)" fill="#B8B8B8"/>
<path d="M604.042 375.132L611.128 363.251L613.417 385.305L604.042 375.132Z" fill="#B8B8B8"/>
<rect x="611.965" y="451.459" width="44.9482" height="10.241" transform="rotate(-5.92566 611.965 451.459)" fill="#B8B8B8"/>
<rect x="609.322" y="425.993" width="8.17239" height="35.8434" transform="rotate(-5.92566 609.322 425.993)" fill="#B8B8B8"/>
<path d="M609.277 425.568L616.363 413.687L618.652 435.741L609.277 425.568Z" fill="#B8B8B8"/>
<rect x="496.45" y="412.469" width="44.9482" height="10.241" transform="rotate(-5.92566 496.45 412.469)" fill="#B8B8B8"/>
<rect x="493.807" y="387.003" width="8.17239" height="35.8434" transform="rotate(-5.92566 493.807 387.003)" fill="#B8B8B8"/>
<path d="M493.763 386.578L500.848 374.697L503.138 396.751L493.763 386.578Z" fill="#B8B8B8"/>
<rect x="556.825" y="457.182" width="44.9482" height="10.241" transform="rotate(-5.92566 556.825 457.182)" fill="#B8B8B8"/>
<rect x="554.182" y="431.716" width="8.17239" height="35.8434" transform="rotate(-5.92566 554.182 431.716)" fill="#B8B8B8"/>
<path d="M554.137 431.291L561.223 419.41L563.512 441.464L554.137 431.291Z" fill="#B8B8B8"/>
<rect x="501.685" y="462.905" width="44.9482" height="10.241" transform="rotate(-5.92566 501.685 462.905)" fill="#B8B8B8"/>
<rect x="499.042" y="437.439" width="8.17239" height="35.8434" transform="rotate(-5.92566 499.042 437.439)" fill="#B8B8B8"/>
<path d="M498.998 437.015L506.083 425.133L508.372 447.187L498.998 437.015Z" fill="#B8B8B8"/>
<rect x="441.31" y="418.192" width="44.9482" height="10.241" transform="rotate(-5.92566 441.31 418.192)" fill="#B8B8B8"/>
<rect x="438.667" y="392.726" width="8.17239" height="35.8434" transform="rotate(-5.92566 438.667 392.726)" fill="#B8B8B8"/>
<path d="M438.623 392.302L445.709 380.42L447.998 402.474L438.623 392.302Z" fill="#B8B8B8"/>
<rect x="446.545" y="468.628" width="44.9482" height="10.241" transform="rotate(-5.92566 446.545 468.628)" fill="#B8B8B8"/>
<rect x="443.902" y="443.162" width="8.17239" height="35.8434" transform="rotate(-5.92566 443.902 443.162)" fill="#B8B8B8"/>
<path d="M443.858 442.738L450.944 430.856L453.233 452.91L443.858 442.738Z" fill="#B8B8B8"/>
<rect x="451.78" y="519.064" width="44.9482" height="10.241" transform="rotate(-5.92566 451.78 519.064)" fill="#B8B8B8"/>
<rect x="449.137" y="493.598" width="8.17239" height="35.8434" transform="rotate(-5.92566 449.137 493.598)" fill="#B8B8B8"/>
<path d="M449.093 493.174L456.178 481.293L458.467 503.347L449.093 493.174Z" fill="#B8B8B8"/>
<rect x="617.199" y="501.895" width="44.9482" height="10.241" transform="rotate(-5.92566 617.199 501.895)" fill="#B8B8B8"/>
<rect x="614.556" y="476.429" width="8.17239" height="35.8434" transform="rotate(-5.92566 614.556 476.429)" fill="#B8B8B8"/>
<path d="M614.512 476.005L621.598 464.123L623.887 486.177L614.512 476.005Z" fill="#B8B8B8"/>
<rect x="386.17" y="423.915" width="44.9482" height="10.241" transform="rotate(-5.92566 386.17 423.915)" fill="#B8B8B8"/>
<rect x="383.527" y="398.449" width="8.17239" height="35.8434" transform="rotate(-5.92566 383.527 398.449)" fill="#B8B8B8"/>
<path d="M383.483 398.025L390.569 386.143L392.858 408.197L383.483 398.025Z" fill="#B8B8B8"/>
<rect x="391.405" y="474.351" width="44.9482" height="10.241" transform="rotate(-5.92566 391.405 474.351)" fill="#B8B8B8"/>
<rect x="388.762" y="448.885" width="8.17239" height="35.8434" transform="rotate(-5.92566 388.762 448.885)" fill="#B8B8B8"/>
<path d="M388.718 448.461L395.804 436.58L398.093 458.634L388.718 448.461Z" fill="#B8B8B8"/>
<rect x="396.64" y="524.787" width="44.9482" height="10.241" transform="rotate(-5.92566 396.64 524.787)" fill="#B8B8B8"/>
<rect x="393.997" y="499.321" width="8.17239" height="35.8434" transform="rotate(-5.92566 393.997 499.321)" fill="#B8B8B8"/>
<path d="M393.953 498.897L401.039 487.016L403.328 509.07L393.953 498.897Z" fill="#B8B8B8"/>
<rect x="562.06" y="507.618" width="44.9482" height="10.241" transform="rotate(-5.92566 562.06 507.618)" fill="#B8B8B8"/>
<rect x="559.417" y="482.152" width="8.17239" height="35.8434" transform="rotate(-5.92566 559.417 482.152)" fill="#B8B8B8"/>
<path d="M559.372 481.728L566.458 469.846L568.747 491.9L559.372 481.728Z" fill="#B8B8B8"/>
<rect x="331.03" y="429.638" width="44.9482" height="10.241" transform="rotate(-5.92566 331.03 429.638)" fill="#B8B8B8"/>
<rect x="328.387" y="404.172" width="8.17239" height="35.8434" transform="rotate(-5.92566 328.387 404.172)" fill="#B8B8B8"/>
<path d="M328.343 403.748L335.429 391.867L337.718 413.92L328.343 403.748Z" fill="#B8B8B8"/>
<rect x="336.265" y="480.074" width="44.9482" height="10.241" transform="rotate(-5.92566 336.265 480.074)" fill="#B8B8B8"/>
<rect x="333.622" y="454.608" width="8.17239" height="35.8434" transform="rotate(-5.92566 333.622 454.608)" fill="#B8B8B8"/>
<path d="M333.578 454.184L340.664 442.303L342.953 464.357L333.578 454.184Z" fill="#B8B8B8"/>
<rect x="341.5" y="530.51" width="44.9482" height="10.241" transform="rotate(-5.92566 341.5 530.51)" fill="#B8B8B8"/>
<rect x="338.857" y="505.045" width="8.17239" height="35.8434" transform="rotate(-5.92566 338.857 505.045)" fill="#B8B8B8"/>
<path d="M338.813 504.62L345.899 492.739L348.188 514.793L338.813 504.62Z" fill="#B8B8B8"/>
<rect x="506.92" y="513.341" width="44.9482" height="10.241" transform="rotate(-5.92566 506.92 513.341)" fill="#B8B8B8"/>
<rect x="504.276" y="487.875" width="8.17239" height="35.8434" transform="rotate(-5.92566 504.276 487.875)" fill="#B8B8B8"/>
<path d="M504.232 487.451L511.318 475.57L513.607 497.623L504.232 487.451Z" fill="#B8B8B8"/>
<rect x="278.871" y="435.052" width="44.9482" height="10.241" transform="rotate(-5.92566 278.871 435.052)" fill="#B8B8B8"/>
<rect x="276.228" y="409.586" width="8.17239" height="35.8434" transform="rotate(-5.92566 276.228 409.586)" fill="#B8B8B8"/>
<path d="M276.184 409.162L283.269 397.28L285.559 419.334L276.184 409.162Z" fill="#B8B8B8"/>
<rect x="284.106" y="485.488" width="44.9482" height="10.241" transform="rotate(-5.92566 284.106 485.488)" fill="#B8B8B8"/>
<rect x="281.463" y="460.022" width="8.17239" height="35.8434" transform="rotate(-5.92566 281.463 460.022)" fill="#B8B8B8"/>
<path d="M281.419 459.598L288.505 447.716L290.794 469.77L281.419 459.598Z" fill="#B8B8B8"/>
<rect x="289.341" y="535.924" width="44.9482" height="10.241" transform="rotate(-5.92566 289.341 535.924)" fill="#B8B8B8"/>
<rect x="286.698" y="510.458" width="8.17239" height="35.8434" transform="rotate(-5.92566 286.698 510.458)" fill="#B8B8B8"/>
<path d="M286.654 510.034L293.739 498.153L296.028 520.207L286.654 510.034Z" fill="#B8B8B8"/>
<rect x="555.55" y="369.433" width="37.307" height="36.8035" transform="rotate(-5.92566 555.55 369.433)" fill="#D4D4D4"/>
<rect x="610.69" y="363.71" width="37.307" height="36.8035" transform="rotate(-5.92566 610.69 363.71)" fill="#D4D4D4"/>
<rect x="615.925" y="414.146" width="37.307" height="36.8035" transform="rotate(-5.92566 615.925 414.146)" fill="#D4D4D4"/>
<rect x="500.41" y="375.156" width="37.307" height="36.8035" transform="rotate(-5.92566 500.41 375.156)" fill="#D4D4D4"/>
<rect x="560.785" y="419.869" width="37.307" height="36.8035" transform="rotate(-5.92566 560.785 419.869)" fill="#D4D4D4"/>
<rect x="505.594" y="425.104" width="37.307" height="36.8035" transform="rotate(-5.92566 505.594 425.104)" fill="#D4D4D4"/>
<rect x="445.27" y="380.879" width="37.307" height="36.8035" transform="rotate(-5.92566 445.27 380.879)" fill="#D4D4D4"/>
<rect x="450.505" y="431.316" width="37.307" height="36.8035" transform="rotate(-5.92566 450.505 431.316)" fill="#D4D4D4"/>
<rect x="455.74" y="481.752" width="37.307" height="36.8035" transform="rotate(-5.92566 455.74 481.752)" fill="#D4D4D4"/>
<rect x="621.16" y="464.582" width="37.307" height="36.8035" transform="rotate(-5.92566 621.16 464.582)" fill="#D4D4D4"/>
<rect x="390.13" y="386.603" width="37.307" height="36.8035" transform="rotate(-5.92566 390.13 386.603)" fill="#D4D4D4"/>
<rect x="395.365" y="437.039" width="37.307" height="36.8035" transform="rotate(-5.92566 395.365 437.039)" fill="#D4D4D4"/>
<rect x="400.6" y="487.475" width="37.307" height="36.8035" transform="rotate(-5.92566 400.6 487.475)" fill="#D4D4D4"/>
<rect x="566.02" y="470.306" width="37.307" height="36.8035" transform="rotate(-5.92566 566.02 470.306)" fill="#D4D4D4"/>
<rect x="334.99" y="392.326" width="37.307" height="36.8035" transform="rotate(-5.92566 334.99 392.326)" fill="#D4D4D4"/>
<rect x="340.225" y="442.762" width="37.307" height="36.8035" transform="rotate(-5.92566 340.225 442.762)" fill="#D4D4D4"/>
<rect x="345.46" y="493.198" width="37.307" height="36.8035" transform="rotate(-5.92566 345.46 493.198)" fill="#D4D4D4"/>
<rect x="510.88" y="476.029" width="37.307" height="36.8035" transform="rotate(-5.92566 510.88 476.029)" fill="#D4D4D4"/>
<rect x="282.831" y="397.739" width="37.307" height="36.8035" transform="rotate(-5.92566 282.831 397.739)" fill="#D5D5D5"/>
<rect x="288.066" y="448.176" width="37.307" height="36.8035" transform="rotate(-5.92566 288.066 448.176)" fill="#D5D5D5"/>
<rect x="293.301" y="498.612" width="37.307" height="36.8035" transform="rotate(-5.92566 293.301 498.612)" fill="#D5D5D5"/>
<path d="M527.401 400.614L525.152 400.847L515.25 388.656L516.608 401.734L514.358 401.967L512.596 384.996L514.846 384.763L524.777 397.01L523.413 383.873L525.64 383.642L527.401 400.614Z" fill="black"/>
<path d="M579.657 388.464L573.969 389.054L573.786 387.294L579.475 386.704L579.657 388.464Z" fill="black"/>
<path d="M476.396 448.465L469.041 449.228L469.666 455.243L478.21 454.356L478.4 456.186L467.618 457.305L465.856 440.334L476.521 439.227L476.713 441.068L468.285 441.943L468.851 447.398L476.206 446.635L476.396 448.465Z" fill="black"/>
<path d="M465.833 399.571L461.847 399.985L462.559 406.85L460.31 407.084L458.548 390.113L464.166 389.529C466.078 389.331 467.592 389.614 468.708 390.378C469.832 391.141 470.48 392.354 470.653 394.017C470.762 395.073 470.57 396.024 470.077 396.869C469.591 397.712 468.859 398.381 467.882 398.876L472.616 405.665L472.63 405.805L470.229 406.054L465.833 399.571ZM461.657 398.155L465.095 397.798C466.207 397.683 467.059 397.304 467.652 396.661C468.253 396.017 468.503 395.214 468.403 394.25C468.294 393.201 467.896 392.429 467.208 391.935C466.529 391.44 465.598 391.25 464.416 391.365L460.989 391.721L461.657 398.155Z" fill="black"/>
<path d="M411.378 462.649L409.617 445.677L414.407 445.18C415.884 445.027 417.223 445.218 418.425 445.753C419.628 446.288 420.598 447.126 421.337 448.266C422.084 449.406 422.542 450.757 422.712 452.318L422.824 453.402C422.991 455.003 422.825 456.438 422.329 457.707C421.84 458.975 421.054 459.991 419.971 460.756C418.895 461.519 417.597 461.988 416.075 462.161L411.378 462.649ZM412.046 447.287L413.426 460.587L415.781 460.342C417.506 460.163 418.791 459.488 419.635 458.316C420.487 457.144 420.811 455.567 420.605 453.585L420.502 452.595C420.302 450.667 419.692 449.219 418.673 448.249C417.66 447.27 416.321 446.859 414.657 447.016L412.046 447.287Z" fill="black"/>
<path d="M413.611 406.961L406.501 407.699L405.364 412.294L403.056 412.533L407.775 394.889L409.734 394.686L417.988 410.983L415.691 411.222L413.611 406.961ZM406.986 405.787L412.756 405.188L409.041 397.55L406.986 405.787Z" fill="black"/>
<path d="M426.508 504.787L419.153 505.55L419.777 511.565L428.321 510.678L428.511 512.508L417.729 513.627L415.968 496.656L426.633 495.549L426.824 497.39L418.397 498.265L418.963 503.72L426.318 502.957L426.508 504.787Z" fill="black"/>
<path d="M368.046 458.63C368.218 460.293 368.089 461.775 367.659 463.076C367.228 464.37 366.533 465.396 365.575 466.156C364.617 466.915 363.454 467.365 362.087 467.507C360.75 467.646 359.531 467.443 358.43 466.897C357.328 466.344 356.426 465.491 355.725 464.338C355.032 463.177 354.594 461.797 354.412 460.198L354.285 458.974C354.116 457.342 354.25 455.871 354.687 454.561C355.125 453.251 355.826 452.213 356.791 451.445C357.763 450.668 358.917 450.211 360.253 450.072C361.613 449.931 362.844 450.137 363.946 450.69C365.055 451.235 365.955 452.104 366.644 453.297C367.332 454.482 367.763 455.902 367.934 457.557L368.046 458.63ZM365.706 457.765C365.497 455.753 364.933 454.252 364.013 453.264C363.093 452.267 361.906 451.845 360.453 451.995C359.039 452.142 357.98 452.798 357.276 453.963C356.579 455.119 356.318 456.654 356.493 458.568L356.623 459.815C356.825 461.766 357.392 463.258 358.324 464.293C359.263 465.318 360.452 465.757 361.889 465.607C363.335 465.457 364.399 464.817 365.083 463.685C365.766 462.546 366.017 460.992 365.836 459.024L365.706 457.765Z" fill="black"/>
<path d="M359.29 408.653L351.935 409.417L352.559 415.431L361.103 414.544L361.293 416.374L350.511 417.494L348.75 400.522L359.415 399.415L359.606 401.257L351.179 402.132L351.745 407.587L359.1 406.823L359.29 408.653Z" fill="black"/>
<path d="M360.082 502.456L367.068 515.728L371.179 501.304L374.081 501.003L375.843 517.974L373.605 518.207L372.919 511.598L372.388 504.442L368.243 518.763L366.529 518.941L359.547 505.811L360.505 512.886L361.191 519.495L358.953 519.728L357.191 502.756L360.082 502.456Z" fill="black"/>
<path d="M315.961 466.123C315.937 467.939 315.417 469.396 314.399 470.491C313.389 471.577 311.959 472.217 310.11 472.409C308.105 472.617 306.422 472.065 305.06 470.753C303.707 469.441 302.905 467.58 302.655 465.171L302.485 463.539C302.322 461.962 302.457 460.546 302.893 459.291C303.336 458.035 304.041 457.035 305.008 456.291C305.975 455.538 307.138 455.092 308.498 454.951C310.301 454.763 311.799 455.119 312.991 456.016C314.183 456.905 314.961 458.231 315.324 459.992L313.075 460.225C312.74 458.893 312.215 457.958 311.499 457.42C310.791 456.88 309.855 456.671 308.689 456.792C307.259 456.941 306.191 457.586 305.485 458.727C304.787 459.868 304.538 461.413 304.741 463.364L304.912 465.007C305.103 466.849 305.639 468.274 306.522 469.282C307.404 470.29 308.537 470.722 309.92 470.579C311.163 470.45 312.086 470.071 312.688 469.443C313.298 468.806 313.639 467.777 313.711 466.356L315.961 466.123Z" fill="black"/>
<path d="M300.723 420.318L308.765 419.483L308.955 421.313L298.663 422.382L296.901 405.41L299.151 405.177L300.723 420.318Z" fill="black"/>
<path d="M313.658 523.286C313.62 522.913 313.696 522.591 313.888 522.32C314.087 522.048 314.409 521.888 314.852 521.843C315.295 521.797 315.642 521.886 315.893 522.111C316.152 522.336 316.301 522.635 316.339 523.008C316.376 523.365 316.291 523.676 316.083 523.941C315.882 524.206 315.561 524.361 315.118 524.407C314.675 524.453 314.328 524.367 314.078 524.15C313.835 523.931 313.695 523.643 313.658 523.286Z" fill="black"/>
<rect x="257.351" y="169.661" width="113.869" height="16.3571" rx="8.17856" transform="rotate(-5.92566 257.351 169.661)" fill="#F25BFF"/>
<rect x="257.351" y="169.661" width="113.869" height="16.3571" rx="8.17856" transform="rotate(-5.92566 257.351 169.661)" fill="url(#paint0_linear)"/>
<rect x="260.221" y="197.319" width="137.841" height="16.3571" rx="8.17856" transform="rotate(-5.92566 260.221 197.319)" fill="#F25BFF"/>
<rect x="260.221" y="197.319" width="137.841" height="16.3571" rx="8.17856" transform="rotate(-5.92566 260.221 197.319)" fill="url(#paint1_linear)"/>
<rect x="263.092" y="224.978" width="130.35" height="16.3571" rx="8.17856" transform="rotate(-5.92566 263.092 224.978)" fill="#F25BFF"/>
<rect x="263.092" y="224.978" width="130.35" height="16.3571" rx="8.17856" transform="rotate(-5.92566 263.092 224.978)" fill="url(#paint2_linear)"/>
<rect x="265.963" y="252.636" width="65.924" height="16.3571" rx="8.17856" transform="rotate(-5.92566 265.963 252.636)" fill="#F25BFF"/>
<rect x="265.963" y="252.636" width="65.924" height="16.3571" rx="8.17856" transform="rotate(-5.92566 265.963 252.636)" fill="url(#paint3_linear)"/>
<path d="M352.408 418.288L378.216 406.42L387.088 425.712L361.279 437.581L381.138 480.765L357.374 491.693L337.515 448.509L252.808 487.462L246.404 473.536L270.425 306.315L295.594 294.741L352.408 418.288ZM270.767 455.831L328.644 429.216L286.695 337.993L286.234 344.396L270.767 455.831ZM508.445 326.102C521.175 353.784 525.907 376.528 522.641 394.333C519.375 412.139 507.691 425.664 487.59 434.907C467.744 444.034 450.035 444.232 434.464 435.502C418.853 426.686 404.865 409.282 392.499 383.29L377.988 351.733C365.414 324.391 360.8 301.903 364.144 284.268C367.488 266.633 379.254 253.174 399.441 243.891C419.457 234.686 437.149 234.341 452.518 242.854C467.848 251.283 481.79 268.811 494.344 295.439L508.445 326.102ZM469.944 304.647C460.74 284.631 451.231 271.358 441.419 264.83C431.567 258.216 420.551 257.71 408.371 263.311C396.276 268.873 389.556 277.484 388.21 289.143C386.865 300.803 390.455 316.127 398.98 335.114L416.371 372.932C425.614 393.033 435.345 406.565 445.563 413.526C455.827 420.363 466.879 421.06 478.718 415.615C490.387 410.249 496.957 401.759 498.426 390.145C499.981 378.492 496.421 362.897 487.747 343.36L469.944 304.647ZM646.264 283.156L672.072 271.288L680.943 290.581L655.135 302.449L674.994 345.633L651.23 356.561L631.371 313.377L546.664 352.33L540.26 338.404L564.28 171.183L589.45 159.609L646.264 283.156ZM564.623 320.7L622.5 294.084L580.55 202.861L580.09 209.264L564.623 320.7Z" fill="black"/>
<path d="M352.408 418.288L348.319 420.168L350.199 424.257L354.288 422.377L352.408 418.288ZM378.216 406.42L382.304 404.54L380.424 400.452L376.336 402.332L378.216 406.42ZM387.088 425.712L388.968 429.801L393.056 427.921L391.176 423.832L387.088 425.712ZM361.279 437.581L359.399 433.492L355.311 435.372L357.191 439.461L361.279 437.581ZM381.138 480.765L383.018 484.853L387.106 482.973L385.226 478.885L381.138 480.765ZM357.374 491.693L353.285 493.573L355.166 497.661L359.254 495.781L357.374 491.693ZM337.515 448.509L341.604 446.629L339.724 442.54L335.635 444.42L337.515 448.509ZM252.808 487.462L248.72 489.342L250.6 493.43L254.688 491.55L252.808 487.462ZM246.404 473.536L241.95 472.896L241.761 474.21L242.316 475.416L246.404 473.536ZM270.425 306.315L268.545 302.227L266.319 303.25L265.97 305.675L270.425 306.315ZM295.594 294.741L299.683 292.861L297.802 288.772L293.714 290.652L295.594 294.741ZM270.767 455.831L266.31 455.213L265.18 463.354L272.647 459.92L270.767 455.831ZM328.644 429.216L330.524 433.305L334.612 431.425L332.732 427.336L328.644 429.216ZM286.695 337.993L290.783 336.113L282.206 337.67L286.695 337.993ZM286.234 344.396L290.691 345.015L290.712 344.868L290.722 344.719L286.234 344.396ZM354.288 422.377L380.096 410.509L376.336 402.332L350.528 414.2L354.288 422.377ZM374.128 408.3L382.999 427.593L391.176 423.832L382.304 404.54L374.128 408.3ZM385.208 421.624L359.399 433.492L363.16 441.669L388.968 429.801L385.208 421.624ZM357.191 439.461L377.049 482.645L385.226 478.885L365.368 435.7L357.191 439.461ZM379.258 476.676L355.494 487.604L359.254 495.781L383.018 484.853L379.258 476.676ZM361.462 489.813L341.604 446.629L333.427 450.389L353.285 493.573L361.462 489.813ZM335.635 444.42L250.928 483.373L254.688 491.55L339.396 452.597L335.635 444.42ZM256.897 485.582L250.493 471.656L242.316 475.416L248.72 489.342L256.897 485.582ZM250.859 474.175L274.879 306.955L265.97 305.675L241.95 472.896L250.859 474.175ZM272.305 310.404L297.474 298.829L293.714 290.652L268.545 302.227L272.305 310.404ZM291.506 296.621L348.319 420.168L356.496 416.408L299.683 292.861L291.506 296.621ZM272.647 459.92L330.524 433.305L326.764 425.128L268.887 451.743L272.647 459.92ZM332.732 427.336L290.783 336.113L282.606 339.873L324.555 431.096L332.732 427.336ZM282.206 337.67L281.745 344.073L290.722 344.719L291.183 338.316L282.206 337.67ZM281.777 343.778L266.31 455.213L275.224 456.45L290.691 345.015L281.777 343.778ZM434.464 435.502L432.251 439.42L432.263 439.427L434.464 435.502ZM392.499 383.29L388.411 385.17L388.423 385.197L388.436 385.223L392.499 383.29ZM452.518 242.854L450.338 246.791L450.344 246.794L450.35 246.798L452.518 242.854ZM494.344 295.439L498.433 293.559L498.424 293.539L498.415 293.52L494.344 295.439ZM441.419 264.83L438.911 268.566L438.918 268.571L438.926 268.576L441.419 264.83ZM398.98 335.114L394.875 336.957L394.883 336.976L394.891 336.994L398.98 335.114ZM445.563 413.526L443.03 417.245L443.049 417.258L443.068 417.271L445.563 413.526ZM498.426 390.145L493.966 389.55L493.964 389.565L493.962 389.58L498.426 390.145ZM487.747 343.36L491.859 341.533L491.847 341.506L491.835 341.48L487.747 343.36ZM504.357 327.982C516.937 355.34 521.234 377.06 518.215 393.522L527.067 395.145C530.579 375.996 525.412 352.228 512.534 324.222L504.357 327.982ZM518.215 393.522C515.273 409.558 504.814 422.034 485.71 430.819L489.47 438.996C510.568 429.294 523.477 414.72 527.067 395.145L518.215 393.522ZM485.71 430.819C466.843 439.495 450.695 439.443 436.664 431.576L432.263 439.427C449.376 449.021 468.645 448.573 489.47 438.996L485.71 430.819ZM436.676 431.583C422.227 423.424 408.752 406.978 396.563 381.357L388.436 385.223C400.978 411.587 415.478 429.949 432.251 439.42L436.676 431.583ZM396.588 381.41L382.076 349.853L373.899 353.613L388.411 385.17L396.588 381.41ZM382.076 349.853C369.655 322.842 365.478 301.387 368.565 285.106L359.723 283.429C356.122 302.419 361.174 325.941 373.899 353.613L382.076 349.853ZM368.565 285.106C371.573 269.246 382.103 256.816 401.321 247.979L397.56 239.802C376.404 249.531 363.404 264.02 359.723 283.429L368.565 285.106ZM401.321 247.979C420.403 239.204 436.537 239.146 450.338 246.791L454.699 238.918C437.762 229.535 418.51 230.168 397.56 239.802L401.321 247.979ZM450.35 246.798C464.451 254.551 477.875 271.059 490.274 297.358L498.415 293.52C485.705 266.563 471.245 248.015 454.686 238.911L450.35 246.798ZM490.256 297.319L504.357 327.982L512.534 324.222L498.433 293.559L490.256 297.319ZM474.033 302.767C464.737 282.551 454.796 268.325 443.911 261.083L438.926 268.576C447.667 274.392 456.743 286.711 465.856 306.527L474.033 302.767ZM443.927 261.094C432.584 253.479 419.875 253.067 406.491 259.222L410.251 267.399C421.227 262.352 430.549 262.953 438.911 268.566L443.927 261.094ZM406.491 259.222C393.196 265.336 385.293 275.172 383.74 288.627L392.681 289.659C393.819 279.795 399.356 272.409 410.251 267.399L406.491 259.222ZM383.74 288.627C382.255 301.499 386.24 317.725 394.875 336.957L403.085 333.271C394.67 314.528 391.475 300.107 392.681 289.659L383.74 288.627ZM394.891 336.994L412.282 374.812L420.459 371.052L403.068 333.234L394.891 336.994ZM412.282 374.812C421.635 395.15 431.79 409.588 443.03 417.245L448.097 409.807C438.901 403.542 429.594 390.916 420.459 371.052L412.282 374.812ZM443.068 417.271C454.719 425.032 467.437 425.756 480.598 419.704L476.838 411.527C466.32 416.363 456.935 415.694 448.058 409.781L443.068 417.271ZM480.598 419.704C493.515 413.764 501.204 404.037 502.891 390.71L493.962 389.58C492.709 399.481 487.259 406.735 476.838 411.527L480.598 419.704ZM502.887 390.741C504.609 377.832 500.635 361.297 491.859 341.533L483.634 345.186C492.208 364.497 495.353 379.153 493.966 389.55L502.887 390.741ZM491.835 341.48L474.033 302.767L465.856 306.527L483.658 345.24L491.835 341.48ZM646.264 283.156L642.175 285.036L644.055 289.125L648.144 287.245L646.264 283.156ZM672.072 271.288L676.16 269.408L674.28 265.32L670.192 267.2L672.072 271.288ZM680.943 290.581L682.823 294.669L686.912 292.789L685.032 288.7L680.943 290.581ZM655.135 302.449L653.255 298.36L649.167 300.24L651.047 304.329L655.135 302.449ZM674.994 345.633L676.874 349.721L680.962 347.841L679.082 343.753L674.994 345.633ZM651.23 356.561L647.141 358.441L649.021 362.529L653.11 360.649L651.23 356.561ZM631.371 313.377L635.46 311.497L633.58 307.408L629.491 309.288L631.371 313.377ZM546.664 352.33L542.576 354.21L544.456 358.298L548.544 356.418L546.664 352.33ZM540.26 338.404L535.806 337.764L535.617 339.078L536.172 340.284L540.26 338.404ZM564.28 171.183L562.4 167.095L560.174 168.118L559.826 170.543L564.28 171.183ZM589.45 159.609L593.538 157.729L591.658 153.64L587.57 155.521L589.45 159.609ZM564.623 320.7L560.165 320.081L559.036 328.222L566.503 324.788L564.623 320.7ZM622.5 294.084L624.38 298.173L628.468 296.293L626.588 292.204L622.5 294.084ZM580.55 202.861L584.639 200.981L576.062 202.538L580.55 202.861ZM580.09 209.264L584.547 209.883L584.567 209.736L584.578 209.587L580.09 209.264ZM648.144 287.245L673.952 275.377L670.192 267.2L644.383 279.068L648.144 287.245ZM667.983 273.168L676.855 292.461L685.032 288.7L676.16 269.408L667.983 273.168ZM679.063 286.492L653.255 298.36L657.015 306.537L682.823 294.669L679.063 286.492ZM651.047 304.329L670.905 347.513L679.082 343.753L659.224 300.569L651.047 304.329ZM673.113 341.544L649.349 352.472L653.11 360.649L676.874 349.721L673.113 341.544ZM655.318 354.681L635.46 311.497L627.283 315.257L647.141 358.441L655.318 354.681ZM629.491 309.288L544.784 348.242L548.544 356.418L633.251 317.465L629.491 309.288ZM550.753 350.45L544.348 336.524L536.172 340.284L542.576 354.21L550.753 350.45ZM544.714 339.044L568.735 171.823L559.826 170.543L535.806 337.764L544.714 339.044ZM566.16 175.272L591.33 163.697L587.57 155.521L562.4 167.095L566.16 175.272ZM585.361 161.489L642.175 285.036L650.352 281.276L593.538 157.729L585.361 161.489ZM566.503 324.788L624.38 298.173L620.619 289.996L562.743 316.611L566.503 324.788ZM626.588 292.204L584.639 200.981L576.462 204.741L618.411 295.964L626.588 292.204ZM576.062 202.538L575.601 208.941L584.578 209.587L585.039 203.184L576.062 202.538ZM575.632 208.646L560.165 320.081L569.08 321.318L584.547 209.883L575.632 208.646Z" fill="#F25BFF"/>
<path d="M352.408 418.288L348.319 420.168L350.199 424.257L354.288 422.377L352.408 418.288ZM378.216 406.42L382.304 404.54L380.424 400.452L376.336 402.332L378.216 406.42ZM387.088 425.712L388.968 429.801L393.056 427.921L391.176 423.832L387.088 425.712ZM361.279 437.581L359.399 433.492L355.311 435.372L357.191 439.461L361.279 437.581ZM381.138 480.765L383.018 484.853L387.106 482.973L385.226 478.885L381.138 480.765ZM357.374 491.693L353.285 493.573L355.166 497.661L359.254 495.781L357.374 491.693ZM337.515 448.509L341.604 446.629L339.724 442.54L335.635 444.42L337.515 448.509ZM252.808 487.462L248.72 489.342L250.6 493.43L254.688 491.55L252.808 487.462ZM246.404 473.536L241.95 472.896L241.761 474.21L242.316 475.416L246.404 473.536ZM270.425 306.315L268.545 302.227L266.319 303.25L265.97 305.675L270.425 306.315ZM295.594 294.741L299.683 292.861L297.802 288.772L293.714 290.652L295.594 294.741ZM270.767 455.831L266.31 455.213L265.18 463.354L272.647 459.92L270.767 455.831ZM328.644 429.216L330.524 433.305L334.612 431.425L332.732 427.336L328.644 429.216ZM286.695 337.993L290.783 336.113L282.206 337.67L286.695 337.993ZM286.234 344.396L290.691 345.015L290.712 344.868L290.722 344.719L286.234 344.396ZM354.288 422.377L380.096 410.509L376.336 402.332L350.528 414.2L354.288 422.377ZM374.128 408.3L382.999 427.593L391.176 423.832L382.304 404.54L374.128 408.3ZM385.208 421.624L359.399 433.492L363.16 441.669L388.968 429.801L385.208 421.624ZM357.191 439.461L377.049 482.645L385.226 478.885L365.368 435.7L357.191 439.461ZM379.258 476.676L355.494 487.604L359.254 495.781L383.018 484.853L379.258 476.676ZM361.462 489.813L341.604 446.629L333.427 450.389L353.285 493.573L361.462 489.813ZM335.635 444.42L250.928 483.373L254.688 491.55L339.396 452.597L335.635 444.42ZM256.897 485.582L250.493 471.656L242.316 475.416L248.72 489.342L256.897 485.582ZM250.859 474.175L274.879 306.955L265.97 305.675L241.95 472.896L250.859 474.175ZM272.305 310.404L297.474 298.829L293.714 290.652L268.545 302.227L272.305 310.404ZM291.506 296.621L348.319 420.168L356.496 416.408L299.683 292.861L291.506 296.621ZM272.647 459.92L330.524 433.305L326.764 425.128L268.887 451.743L272.647 459.92ZM332.732 427.336L290.783 336.113L282.606 339.873L324.555 431.096L332.732 427.336ZM282.206 337.67L281.745 344.073L290.722 344.719L291.183 338.316L282.206 337.67ZM281.777 343.778L266.31 455.213L275.224 456.45L290.691 345.015L281.777 343.778ZM434.464 435.502L432.251 439.42L432.263 439.427L434.464 435.502ZM392.499 383.29L388.411 385.17L388.423 385.197L388.436 385.223L392.499 383.29ZM452.518 242.854L450.338 246.791L450.344 246.794L450.35 246.798L452.518 242.854ZM494.344 295.439L498.433 293.559L498.424 293.539L498.415 293.52L494.344 295.439ZM441.419 264.83L438.911 268.566L438.918 268.571L438.926 268.576L441.419 264.83ZM398.98 335.114L394.875 336.957L394.883 336.976L394.891 336.994L398.98 335.114ZM445.563 413.526L443.03 417.245L443.049 417.258L443.068 417.271L445.563 413.526ZM498.426 390.145L493.966 389.55L493.964 389.565L493.962 389.58L498.426 390.145ZM487.747 343.36L491.859 341.533L491.847 341.506L491.835 341.48L487.747 343.36ZM504.357 327.982C516.937 355.34 521.234 377.06 518.215 393.522L527.067 395.145C530.579 375.996 525.412 352.228 512.534 324.222L504.357 327.982ZM518.215 393.522C515.273 409.558 504.814 422.034 485.71 430.819L489.47 438.996C510.568 429.294 523.477 414.72 527.067 395.145L518.215 393.522ZM485.71 430.819C466.843 439.495 450.695 439.443 436.664 431.576L432.263 439.427C449.376 449.021 468.645 448.573 489.47 438.996L485.71 430.819ZM436.676 431.583C422.227 423.424 408.752 406.978 396.563 381.357L388.436 385.223C400.978 411.587 415.478 429.949 432.251 439.42L436.676 431.583ZM396.588 381.41L382.076 349.853L373.899 353.613L388.411 385.17L396.588 381.41ZM382.076 349.853C369.655 322.842 365.478 301.387 368.565 285.106L359.723 283.429C356.122 302.419 361.174 325.941 373.899 353.613L382.076 349.853ZM368.565 285.106C371.573 269.246 382.103 256.816 401.321 247.979L397.56 239.802C376.404 249.531 363.404 264.02 359.723 283.429L368.565 285.106ZM401.321 247.979C420.403 239.204 436.537 239.146 450.338 246.791L454.699 238.918C437.762 229.535 418.51 230.168 397.56 239.802L401.321 247.979ZM450.35 246.798C464.451 254.551 477.875 271.059 490.274 297.358L498.415 293.52C485.705 266.563 471.245 248.015 454.686 238.911L450.35 246.798ZM490.256 297.319L504.357 327.982L512.534 324.222L498.433 293.559L490.256 297.319ZM474.033 302.767C464.737 282.551 454.796 268.325 443.911 261.083L438.926 268.576C447.667 274.392 456.743 286.711 465.856 306.527L474.033 302.767ZM443.927 261.094C432.584 253.479 419.875 253.067 406.491 259.222L410.251 267.399C421.227 262.352 430.549 262.953 438.911 268.566L443.927 261.094ZM406.491 259.222C393.196 265.336 385.293 275.172 383.74 288.627L392.681 289.659C393.819 279.795 399.356 272.409 410.251 267.399L406.491 259.222ZM383.74 288.627C382.255 301.499 386.24 317.725 394.875 336.957L403.085 333.271C394.67 314.528 391.475 300.107 392.681 289.659L383.74 288.627ZM394.891 336.994L412.282 374.812L420.459 371.052L403.068 333.234L394.891 336.994ZM412.282 374.812C421.635 395.15 431.79 409.588 443.03 417.245L448.097 409.807C438.901 403.542 429.594 390.916 420.459 371.052L412.282 374.812ZM443.068 417.271C454.719 425.032 467.437 425.756 480.598 419.704L476.838 411.527C466.32 416.363 456.935 415.694 448.058 409.781L443.068 417.271ZM480.598 419.704C493.515 413.764 501.204 404.037 502.891 390.71L493.962 389.58C492.709 399.481 487.259 406.735 476.838 411.527L480.598 419.704ZM502.887 390.741C504.609 377.832 500.635 361.297 491.859 341.533L483.634 345.186C492.208 364.497 495.353 379.153 493.966 389.55L502.887 390.741ZM491.835 341.48L474.033 302.767L465.856 306.527L483.658 345.24L491.835 341.48ZM646.264 283.156L642.175 285.036L644.055 289.125L648.144 287.245L646.264 283.156ZM672.072 271.288L676.16 269.408L674.28 265.32L670.192 267.2L672.072 271.288ZM680.943 290.581L682.823 294.669L686.912 292.789L685.032 288.7L680.943 290.581ZM655.135 302.449L653.255 298.36L649.167 300.24L651.047 304.329L655.135 302.449ZM674.994 345.633L676.874 349.721L680.962 347.841L679.082 343.753L674.994 345.633ZM651.23 356.561L647.141 358.441L649.021 362.529L653.11 360.649L651.23 356.561ZM631.371 313.377L635.46 311.497L633.58 307.408L629.491 309.288L631.371 313.377ZM546.664 352.33L542.576 354.21L544.456 358.298L548.544 356.418L546.664 352.33ZM540.26 338.404L535.806 337.764L535.617 339.078L536.172 340.284L540.26 338.404ZM564.28 171.183L562.4 167.095L560.174 168.118L559.826 170.543L564.28 171.183ZM589.45 159.609L593.538 157.729L591.658 153.64L587.57 155.521L589.45 159.609ZM564.623 320.7L560.165 320.081L559.036 328.222L566.503 324.788L564.623 320.7ZM622.5 294.084L624.38 298.173L628.468 296.293L626.588 292.204L622.5 294.084ZM580.55 202.861L584.639 200.981L576.062 202.538L580.55 202.861ZM580.09 209.264L584.547 209.883L584.567 209.736L584.578 209.587L580.09 209.264ZM648.144 287.245L673.952 275.377L670.192 267.2L644.383 279.068L648.144 287.245ZM667.983 273.168L676.855 292.461L685.032 288.7L676.16 269.408L667.983 273.168ZM679.063 286.492L653.255 298.36L657.015 306.537L682.823 294.669L679.063 286.492ZM651.047 304.329L670.905 347.513L679.082 343.753L659.224 300.569L651.047 304.329ZM673.113 341.544L649.349 352.472L653.11 360.649L676.874 349.721L673.113 341.544ZM655.318 354.681L635.46 311.497L627.283 315.257L647.141 358.441L655.318 354.681ZM629.491 309.288L544.784 348.242L548.544 356.418L633.251 317.465L629.491 309.288ZM550.753 350.45L544.348 336.524L536.172 340.284L542.576 354.21L550.753 350.45ZM544.714 339.044L568.735 171.823L559.826 170.543L535.806 337.764L544.714 339.044ZM566.16 175.272L591.33 163.697L587.57 155.521L562.4 167.095L566.16 175.272ZM585.361 161.489L642.175 285.036L650.352 281.276L593.538 157.729L585.361 161.489ZM566.503 324.788L624.38 298.173L620.619 289.996L562.743 316.611L566.503 324.788ZM626.588 292.204L584.639 200.981L576.462 204.741L618.411 295.964L626.588 292.204ZM576.062 202.538L575.601 208.941L584.578 209.587L585.039 203.184L576.062 202.538ZM575.632 208.646L560.165 320.081L569.08 321.318L584.547 209.883L575.632 208.646Z" fill="url(#paint4_linear)"/>
<path d="M352.408 418.288L348.319 420.168L350.199 424.257L354.288 422.377L352.408 418.288ZM378.216 406.42L382.304 404.54L380.424 400.452L376.336 402.332L378.216 406.42ZM387.088 425.712L388.968 429.801L393.056 427.921L391.176 423.832L387.088 425.712ZM361.279 437.581L359.399 433.492L355.311 435.372L357.191 439.461L361.279 437.581ZM381.138 480.765L383.018 484.853L387.106 482.973L385.226 478.885L381.138 480.765ZM357.374 491.693L353.285 493.573L355.166 497.661L359.254 495.781L357.374 491.693ZM337.515 448.509L341.604 446.629L339.724 442.54L335.635 444.42L337.515 448.509ZM252.808 487.462L248.72 489.342L250.6 493.43L254.688 491.55L252.808 487.462ZM246.404 473.536L241.95 472.896L241.761 474.21L242.316 475.416L246.404 473.536ZM270.425 306.315L268.545 302.227L266.319 303.25L265.97 305.675L270.425 306.315ZM295.594 294.741L299.683 292.861L297.802 288.772L293.714 290.652L295.594 294.741ZM270.767 455.831L266.31 455.213L265.18 463.354L272.647 459.92L270.767 455.831ZM328.644 429.216L330.524 433.305L334.612 431.425L332.732 427.336L328.644 429.216ZM286.695 337.993L290.783 336.113L282.206 337.67L286.695 337.993ZM286.234 344.396L290.691 345.015L290.712 344.868L290.722 344.719L286.234 344.396ZM354.288 422.377L380.096 410.509L376.336 402.332L350.528 414.2L354.288 422.377ZM374.128 408.3L382.999 427.593L391.176 423.832L382.304 404.54L374.128 408.3ZM385.208 421.624L359.399 433.492L363.16 441.669L388.968 429.801L385.208 421.624ZM357.191 439.461L377.049 482.645L385.226 478.885L365.368 435.7L357.191 439.461ZM379.258 476.676L355.494 487.604L359.254 495.781L383.018 484.853L379.258 476.676ZM361.462 489.813L341.604 446.629L333.427 450.389L353.285 493.573L361.462 489.813ZM335.635 444.42L250.928 483.373L254.688 491.55L339.396 452.597L335.635 444.42ZM256.897 485.582L250.493 471.656L242.316 475.416L248.72 489.342L256.897 485.582ZM250.859 474.175L274.879 306.955L265.97 305.675L241.95 472.896L250.859 474.175ZM272.305 310.404L297.474 298.829L293.714 290.652L268.545 302.227L272.305 310.404ZM291.506 296.621L348.319 420.168L356.496 416.408L299.683 292.861L291.506 296.621ZM272.647 459.92L330.524 433.305L326.764 425.128L268.887 451.743L272.647 459.92ZM332.732 427.336L290.783 336.113L282.606 339.873L324.555 431.096L332.732 427.336ZM282.206 337.67L281.745 344.073L290.722 344.719L291.183 338.316L282.206 337.67ZM281.777 343.778L266.31 455.213L275.224 456.45L290.691 345.015L281.777 343.778ZM434.464 435.502L432.251 439.42L432.263 439.427L434.464 435.502ZM392.499 383.29L388.411 385.17L388.423 385.197L388.436 385.223L392.499 383.29ZM452.518 242.854L450.338 246.791L450.344 246.794L450.35 246.798L452.518 242.854ZM494.344 295.439L498.433 293.559L498.424 293.539L498.415 293.52L494.344 295.439ZM441.419 264.83L438.911 268.566L438.918 268.571L438.926 268.576L441.419 264.83ZM398.98 335.114L394.875 336.957L394.883 336.976L394.891 336.994L398.98 335.114ZM445.563 413.526L443.03 417.245L443.049 417.258L443.068 417.271L445.563 413.526ZM498.426 390.145L493.966 389.55L493.964 389.565L493.962 389.58L498.426 390.145ZM487.747 343.36L491.859 341.533L491.847 341.506L491.835 341.48L487.747 343.36ZM504.357 327.982C516.937 355.34 521.234 377.06 518.215 393.522L527.067 395.145C530.579 375.996 525.412 352.228 512.534 324.222L504.357 327.982ZM518.215 393.522C515.273 409.558 504.814 422.034 485.71 430.819L489.47 438.996C510.568 429.294 523.477 414.72 527.067 395.145L518.215 393.522ZM485.71 430.819C466.843 439.495 450.695 439.443 436.664 431.576L432.263 439.427C449.376 449.021 468.645 448.573 489.47 438.996L485.71 430.819ZM436.676 431.583C422.227 423.424 408.752 406.978 396.563 381.357L388.436 385.223C400.978 411.587 415.478 429.949 432.251 439.42L436.676 431.583ZM396.588 381.41L382.076 349.853L373.899 353.613L388.411 385.17L396.588 381.41ZM382.076 349.853C369.655 322.842 365.478 301.387 368.565 285.106L359.723 283.429C356.122 302.419 361.174 325.941 373.899 353.613L382.076 349.853ZM368.565 285.106C371.573 269.246 382.103 256.816 401.321 247.979L397.56 239.802C376.404 249.531 363.404 264.02 359.723 283.429L368.565 285.106ZM401.321 247.979C420.403 239.204 436.537 239.146 450.338 246.791L454.699 238.918C437.762 229.535 418.51 230.168 397.56 239.802L401.321 247.979ZM450.35 246.798C464.451 254.551 477.875 271.059 490.274 297.358L498.415 293.52C485.705 266.563 471.245 248.015 454.686 238.911L450.35 246.798ZM490.256 297.319L504.357 327.982L512.534 324.222L498.433 293.559L490.256 297.319ZM474.033 302.767C464.737 282.551 454.796 268.325 443.911 261.083L438.926 268.576C447.667 274.392 456.743 286.711 465.856 306.527L474.033 302.767ZM443.927 261.094C432.584 253.479 419.875 253.067 406.491 259.222L410.251 267.399C421.227 262.352 430.549 262.953 438.911 268.566L443.927 261.094ZM406.491 259.222C393.196 265.336 385.293 275.172 383.74 288.627L392.681 289.659C393.819 279.795 399.356 272.409 410.251 267.399L406.491 259.222ZM383.74 288.627C382.255 301.499 386.24 317.725 394.875 336.957L403.085 333.271C394.67 314.528 391.475 300.107 392.681 289.659L383.74 288.627ZM394.891 336.994L412.282 374.812L420.459 371.052L403.068 333.234L394.891 336.994ZM412.282 374.812C421.635 395.15 431.79 409.588 443.03 417.245L448.097 409.807C438.901 403.542 429.594 390.916 420.459 371.052L412.282 374.812ZM443.068 417.271C454.719 425.032 467.437 425.756 480.598 419.704L476.838 411.527C466.32 416.363 456.935 415.694 448.058 409.781L443.068 417.271ZM480.598 419.704C493.515 413.764 501.204 404.037 502.891 390.71L493.962 389.58C492.709 399.481 487.259 406.735 476.838 411.527L480.598 419.704ZM502.887 390.741C504.609 377.832 500.635 361.297 491.859 341.533L483.634 345.186C492.208 364.497 495.353 379.153 493.966 389.55L502.887 390.741ZM491.835 341.48L474.033 302.767L465.856 306.527L483.658 345.24L491.835 341.48ZM646.264 283.156L642.175 285.036L644.055 289.125L648.144 287.245L646.264 283.156ZM672.072 271.288L676.16 269.408L674.28 265.32L670.192 267.2L672.072 271.288ZM680.943 290.581L682.823 294.669L686.912 292.789L685.032 288.7L680.943 290.581ZM655.135 302.449L653.255 298.36L649.167 300.24L651.047 304.329L655.135 302.449ZM674.994 345.633L676.874 349.721L680.962 347.841L679.082 343.753L674.994 345.633ZM651.23 356.561L647.141 358.441L649.021 362.529L653.11 360.649L651.23 356.561ZM631.371 313.377L635.46 311.497L633.58 307.408L629.491 309.288L631.371 313.377ZM546.664 352.33L542.576 354.21L544.456 358.298L548.544 356.418L546.664 352.33ZM540.26 338.404L535.806 337.764L535.617 339.078L536.172 340.284L540.26 338.404ZM564.28 171.183L562.4 167.095L560.174 168.118L559.826 170.543L564.28 171.183ZM589.45 159.609L593.538 157.729L591.658 153.64L587.57 155.521L589.45 159.609ZM564.623 320.7L560.165 320.081L559.036 328.222L566.503 324.788L564.623 320.7ZM622.5 294.084L624.38 298.173L628.468 296.293L626.588 292.204L622.5 294.084ZM580.55 202.861L584.639 200.981L576.062 202.538L580.55 202.861ZM580.09 209.264L584.547 209.883L584.567 209.736L584.578 209.587L580.09 209.264ZM648.144 287.245L673.952 275.377L670.192 267.2L644.383 279.068L648.144 287.245ZM667.983 273.168L676.855 292.461L685.032 288.7L676.16 269.408L667.983 273.168ZM679.063 286.492L653.255 298.36L657.015 306.537L682.823 294.669L679.063 286.492ZM651.047 304.329L670.905 347.513L679.082 343.753L659.224 300.569L651.047 304.329ZM673.113 341.544L649.349 352.472L653.11 360.649L676.874 349.721L673.113 341.544ZM655.318 354.681L635.46 311.497L627.283 315.257L647.141 358.441L655.318 354.681ZM629.491 309.288L544.784 348.242L548.544 356.418L633.251 317.465L629.491 309.288ZM550.753 350.45L544.348 336.524L536.172 340.284L542.576 354.21L550.753 350.45ZM544.714 339.044L568.735 171.823L559.826 170.543L535.806 337.764L544.714 339.044ZM566.16 175.272L591.33 163.697L587.57 155.521L562.4 167.095L566.16 175.272ZM585.361 161.489L642.175 285.036L650.352 281.276L593.538 157.729L585.361 161.489ZM566.503 324.788L624.38 298.173L620.619 289.996L562.743 316.611L566.503 324.788ZM626.588 292.204L584.639 200.981L576.462 204.741L618.411 295.964L626.588 292.204ZM576.062 202.538L575.601 208.941L584.578 209.587L585.039 203.184L576.062 202.538ZM575.632 208.646L560.165 320.081L569.08 321.318L584.547 209.883L575.632 208.646Z" fill="url(#paint5_linear)"/>
<defs>
<linearGradient id="paint0_linear" x1="314.285" y1="169.661" x2="314.285" y2="186.018" gradientUnits="userSpaceOnUse">
<stop stop-color="#A200DB"/>
<stop offset="1" stop-color="#E900EE" stop-opacity="0"/>
</linearGradient>
<linearGradient id="paint1_linear" x1="329.142" y1="197.319" x2="329.142" y2="213.676" gradientUnits="userSpaceOnUse">
<stop stop-color="#A200DB"/>
<stop offset="1" stop-color="#E900EE" stop-opacity="0"/>
</linearGradient>
<linearGradient id="paint2_linear" x1="328.267" y1="224.978" x2="328.267" y2="241.335" gradientUnits="userSpaceOnUse">
<stop stop-color="#A200DB"/>
<stop offset="1" stop-color="#E900EE" stop-opacity="0"/>
</linearGradient>
<linearGradient id="paint3_linear" x1="298.925" y1="252.636" x2="298.925" y2="268.994" gradientUnits="userSpaceOnUse">
<stop stop-color="#A200DB"/>
<stop offset="1" stop-color="#E900EE" stop-opacity="0"/>
</linearGradient>
<linearGradient id="paint4_linear" x1="395.208" y1="234.349" x2="495.479" y2="452.398" gradientUnits="userSpaceOnUse">
<stop stop-color="#A200DB"/>
<stop offset="1" stop-color="white" stop-opacity="0"/>
</linearGradient>
<linearGradient id="paint5_linear" x1="395.208" y1="234.349" x2="495.479" y2="452.398" gradientUnits="userSpaceOnUse">
<stop stop-color="#A200DB"/>
<stop offset="1" stop-color="white" stop-opacity="0"/>
</linearGradient>
</defs>
</svg>
