<svg width="657" height="659" viewBox="0 0 657 659" fill="none" xmlns="http://www.w3.org/2000/svg">
<path d="M284.267 481.842C282.479 488.182 280.582 495.059 275.273 498.96C226.283 534.956 19.3151 336.525 36.3857 403.698C54.3438 474.364 97.422 536.07 157.568 577.284C217.713 618.497 290.81 636.396 363.192 627.634C435.575 618.873 502.29 584.05 550.865 529.677C599.44 475.303 626.552 405.1 627.131 332.191C627.71 259.282 601.717 188.657 554.011 133.519C506.306 78.3808 440.152 42.5032 367.918 32.5929C329.056 27.2612 289.865 29.6418 252.481 39.2476C198.991 52.9919 186.237 117.001 216.727 163.05L301.832 291.583C317.901 315.852 322.599 345.918 314.698 373.933L284.267 481.842Z" fill="#EDE6A4"/>
<rect x="144.589" y="372.971" width="406.032" height="184.836" transform="rotate(-5.92566 144.589 372.971)" fill="#C4C4C4"/>
<rect x="119.597" y="132.179" width="406.032" height="242.085" transform="rotate(-5.92566 119.597 132.179)" fill="#1C1C1C"/>
<rect x="129.889" y="144.267" width="388.052" height="217.55" transform="rotate(-5.92566 129.889 144.267)" fill="#F1F1F1"/>
<rect x="133.022" y="551.778" width="435.997" height="39.2571" transform="rotate(-5.92566 133.022 551.778)" fill="#B8B8B8"/>
<rect x="118.837" y="415.112" width="29.9654" height="137.4" transform="rotate(-5.92566 118.837 415.112)" fill="#B8B8B8"/>
<path d="M118.837 415.112L144.438 371.154L152.92 452.876L118.837 415.112Z" fill="#B8B8B8"/>
<rect x="434.59" y="395.066" width="44.9482" height="10.241" transform="rotate(-5.92566 434.59 395.066)" fill="#B8B8B8"/>
<rect x="431.947" y="369.601" width="8.17239" height="35.8434" transform="rotate(-5.92566 431.947 369.601)" fill="#B8B8B8"/>
<path d="M431.903 369.176L438.989 357.295L441.278 379.349L431.903 369.176Z" fill="#B8B8B8"/>
<rect x="489.73" y="389.343" width="44.9482" height="10.241" transform="rotate(-5.92566 489.73 389.343)" fill="#B8B8B8"/>
<rect x="487.087" y="363.878" width="8.17239" height="35.8434" transform="rotate(-5.92566 487.087 363.878)" fill="#B8B8B8"/>
<path d="M487.043 363.453L494.128 351.572L496.417 373.626L487.043 363.453Z" fill="#B8B8B8"/>
<rect x="494.965" y="439.779" width="44.9482" height="10.241" transform="rotate(-5.92566 494.965 439.779)" fill="#B8B8B8"/>
<rect x="492.322" y="414.314" width="8.17239" height="35.8434" transform="rotate(-5.92566 492.322 414.314)" fill="#B8B8B8"/>
<path d="M492.277 413.889L499.363 402.008L501.652 424.062L492.277 413.889Z" fill="#B8B8B8"/>
<rect x="379.45" y="400.789" width="44.9482" height="10.241" transform="rotate(-5.92566 379.45 400.789)" fill="#B8B8B8"/>
<rect x="376.807" y="375.324" width="8.17239" height="35.8434" transform="rotate(-5.92566 376.807 375.324)" fill="#B8B8B8"/>
<path d="M376.763 374.899L383.849 363.018L386.138 385.072L376.763 374.899Z" fill="#B8B8B8"/>
<rect x="439.825" y="445.502" width="44.9482" height="10.241" transform="rotate(-5.92566 439.825 445.502)" fill="#B8B8B8"/>
<rect x="437.182" y="420.037" width="8.17239" height="35.8434" transform="rotate(-5.92566 437.182 420.037)" fill="#B8B8B8"/>
<path d="M437.138 419.612L444.223 407.731L446.512 429.785L437.138 419.612Z" fill="#B8B8B8"/>
<rect x="384.685" y="451.226" width="44.9482" height="10.241" transform="rotate(-5.92566 384.685 451.226)" fill="#B8B8B8"/>
<rect x="382.042" y="425.76" width="8.17239" height="35.8434" transform="rotate(-5.92566 382.042 425.76)" fill="#B8B8B8"/>
<path d="M381.998 425.335L389.083 413.454L391.372 435.508L381.998 425.335Z" fill="#B8B8B8"/>
<rect x="324.31" y="406.512" width="44.9482" height="10.241" transform="rotate(-5.92566 324.31 406.512)" fill="#B8B8B8"/>
<rect x="321.667" y="381.047" width="8.17239" height="35.8434" transform="rotate(-5.92566 321.667 381.047)" fill="#B8B8B8"/>
<path d="M321.623 380.622L328.709 368.741L330.998 390.795L321.623 380.622Z" fill="#B8B8B8"/>
<rect x="329.545" y="456.949" width="44.9482" height="10.241" transform="rotate(-5.92566 329.545 456.949)" fill="#B8B8B8"/>
<rect x="326.902" y="431.483" width="8.17239" height="35.8434" transform="rotate(-5.92566 326.902 431.483)" fill="#B8B8B8"/>
<path d="M326.858 431.058L333.944 419.177L336.233 441.231L326.858 431.058Z" fill="#B8B8B8"/>
<rect x="334.78" y="507.385" width="44.9482" height="10.241" transform="rotate(-5.92566 334.78 507.385)" fill="#B8B8B8"/>
<rect x="332.137" y="481.919" width="8.17239" height="35.8434" transform="rotate(-5.92566 332.137 481.919)" fill="#B8B8B8"/>
<path d="M332.093 481.495L339.179 469.613L341.468 491.667L332.093 481.495Z" fill="#B8B8B8"/>
<rect x="500.2" y="490.215" width="44.9482" height="10.241" transform="rotate(-5.92566 500.2 490.215)" fill="#B8B8B8"/>
<rect x="497.556" y="464.75" width="8.17239" height="35.8434" transform="rotate(-5.92566 497.556 464.75)" fill="#B8B8B8"/>
<path d="M497.512 464.325L504.598 452.444L506.887 474.498L497.512 464.325Z" fill="#B8B8B8"/>
<rect x="269.17" y="412.236" width="44.9482" height="10.241" transform="rotate(-5.92566 269.17 412.236)" fill="#B8B8B8"/>
<rect x="266.527" y="386.77" width="8.17239" height="35.8434" transform="rotate(-5.92566 266.527 386.77)" fill="#B8B8B8"/>
<path d="M266.483 386.345L273.569 374.464L275.858 396.518L266.483 386.345Z" fill="#B8B8B8"/>
<rect x="274.405" y="462.672" width="44.9482" height="10.241" transform="rotate(-5.92566 274.405 462.672)" fill="#B8B8B8"/>
<rect x="271.762" y="437.206" width="8.17239" height="35.8434" transform="rotate(-5.92566 271.762 437.206)" fill="#B8B8B8"/>
<path d="M271.718 436.782L278.804 424.9L281.093 446.954L271.718 436.782Z" fill="#B8B8B8"/>
<rect x="279.64" y="513.108" width="44.9482" height="10.241" transform="rotate(-5.92566 279.64 513.108)" fill="#B8B8B8"/>
<rect x="276.997" y="487.642" width="8.17239" height="35.8434" transform="rotate(-5.92566 276.997 487.642)" fill="#B8B8B8"/>
<path d="M276.953 487.218L284.039 475.337L286.328 497.39L276.953 487.218Z" fill="#B8B8B8"/>
<rect x="445.06" y="495.939" width="44.9482" height="10.241" transform="rotate(-5.92566 445.06 495.939)" fill="#B8B8B8"/>
<rect x="442.417" y="470.473" width="8.17239" height="35.8434" transform="rotate(-5.92566 442.417 470.473)" fill="#B8B8B8"/>
<path d="M442.372 470.048L449.458 458.167L451.747 480.221L442.372 470.048Z" fill="#B8B8B8"/>
<rect x="214.03" y="417.959" width="44.9482" height="10.241" transform="rotate(-5.92566 214.03 417.959)" fill="#B8B8B8"/>
<rect x="211.387" y="392.493" width="8.17239" height="35.8434" transform="rotate(-5.92566 211.387 392.493)" fill="#B8B8B8"/>
<path d="M211.343 392.069L218.429 380.187L220.718 402.241L211.343 392.069Z" fill="#B8B8B8"/>
<rect x="219.265" y="468.395" width="44.9482" height="10.241" transform="rotate(-5.92566 219.265 468.395)" fill="#B8B8B8"/>
<rect x="216.622" y="442.929" width="8.17239" height="35.8434" transform="rotate(-5.92566 216.622 442.929)" fill="#B8B8B8"/>
<path d="M216.578 442.505L223.664 430.624L225.953 452.677L216.578 442.505Z" fill="#B8B8B8"/>
<rect x="224.5" y="518.831" width="44.9482" height="10.241" transform="rotate(-5.92566 224.5 518.831)" fill="#B8B8B8"/>
<rect x="221.857" y="493.365" width="8.17239" height="35.8434" transform="rotate(-5.92566 221.857 493.365)" fill="#B8B8B8"/>
<path d="M221.813 492.941L228.899 481.06L231.188 503.114L221.813 492.941Z" fill="#B8B8B8"/>
<rect x="389.92" y="501.662" width="44.9482" height="10.241" transform="rotate(-5.92566 389.92 501.662)" fill="#B8B8B8"/>
<rect x="387.277" y="476.196" width="8.17239" height="35.8434" transform="rotate(-5.92566 387.277 476.196)" fill="#B8B8B8"/>
<path d="M387.233 475.772L394.318 463.89L396.607 485.944L387.233 475.772Z" fill="#B8B8B8"/>
<rect x="161.871" y="423.372" width="44.9482" height="10.241" transform="rotate(-5.92566 161.871 423.372)" fill="#B8B8B8"/>
<rect x="159.228" y="397.907" width="8.17239" height="35.8434" transform="rotate(-5.92566 159.228 397.907)" fill="#B8B8B8"/>
<path d="M159.184 397.482L166.27 385.601L168.559 407.655L159.184 397.482Z" fill="#B8B8B8"/>
<rect x="167.106" y="473.809" width="44.9482" height="10.241" transform="rotate(-5.92566 167.106 473.809)" fill="#B8B8B8"/>
<rect x="164.463" y="448.343" width="8.17239" height="35.8434" transform="rotate(-5.92566 164.463 448.343)" fill="#B8B8B8"/>
<path d="M164.419 447.918L171.505 436.037L173.794 458.091L164.419 447.918Z" fill="#B8B8B8"/>
<rect x="172.341" y="524.245" width="44.9482" height="10.241" transform="rotate(-5.92566 172.341 524.245)" fill="#B8B8B8"/>
<rect x="169.698" y="498.779" width="8.17239" height="35.8434" transform="rotate(-5.92566 169.698 498.779)" fill="#B8B8B8"/>
<path d="M169.654 498.355L176.74 486.473L179.029 508.527L169.654 498.355Z" fill="#B8B8B8"/>
<rect x="438.55" y="357.754" width="37.307" height="36.8035" transform="rotate(-5.92566 438.55 357.754)" fill="#D4D4D4"/>
<rect x="493.69" y="352.031" width="37.307" height="36.8035" transform="rotate(-5.92566 493.69 352.031)" fill="#D4D4D4"/>
<rect x="498.925" y="402.467" width="37.307" height="36.8035" transform="rotate(-5.92566 498.925 402.467)" fill="#D4D4D4"/>
<rect x="383.41" y="363.477" width="37.307" height="36.8035" transform="rotate(-5.92566 383.41 363.477)" fill="#D4D4D4"/>
<rect x="443.785" y="408.19" width="37.307" height="36.8035" transform="rotate(-5.92566 443.785 408.19)" fill="#D4D4D4"/>
<rect x="388.594" y="413.425" width="37.307" height="36.8035" transform="rotate(-5.92566 388.594 413.425)" fill="#D4D4D4"/>
<rect x="328.27" y="369.2" width="37.307" height="36.8035" transform="rotate(-5.92566 328.27 369.2)" fill="#D4D4D4"/>
<rect x="333.505" y="419.636" width="37.307" height="36.8035" transform="rotate(-5.92566 333.505 419.636)" fill="#D4D4D4"/>
<rect x="338.74" y="470.073" width="37.307" height="36.8035" transform="rotate(-5.92566 338.74 470.073)" fill="#D4D4D4"/>
<rect x="504.16" y="452.903" width="37.307" height="36.8035" transform="rotate(-5.92566 504.16 452.903)" fill="#D4D4D4"/>
<rect x="273.13" y="374.923" width="37.307" height="36.8035" transform="rotate(-5.92566 273.13 374.923)" fill="#D4D4D4"/>
<rect x="278.365" y="425.359" width="37.307" height="36.8035" transform="rotate(-5.92566 278.365 425.359)" fill="#D4D4D4"/>
<rect x="283.6" y="475.796" width="37.307" height="36.8035" transform="rotate(-5.92566 283.6 475.796)" fill="#D4D4D4"/>
<rect x="449.02" y="458.626" width="37.307" height="36.8035" transform="rotate(-5.92566 449.02 458.626)" fill="#D4D4D4"/>
<rect x="217.991" y="380.646" width="37.307" height="36.8035" transform="rotate(-5.92566 217.991 380.646)" fill="#D4D4D4"/>
<rect x="223.226" y="431.083" width="37.307" height="36.8035" transform="rotate(-5.92566 223.226 431.083)" fill="#D4D4D4"/>
<rect x="228.46" y="481.519" width="37.307" height="36.8035" transform="rotate(-5.92566 228.46 481.519)" fill="#D4D4D4"/>
<rect x="393.88" y="464.349" width="37.307" height="36.8035" transform="rotate(-5.92566 393.88 464.349)" fill="#D4D4D4"/>
<rect x="165.831" y="386.06" width="37.307" height="36.8035" transform="rotate(-5.92566 165.831 386.06)" fill="#D5D5D5"/>
<rect x="171.066" y="436.496" width="37.307" height="36.8035" transform="rotate(-5.92566 171.066 436.496)" fill="#D5D5D5"/>
<rect x="176.301" y="486.932" width="37.307" height="36.8035" transform="rotate(-5.92566 176.301 486.932)" fill="#D5D5D5"/>
<path d="M410.401 388.934L408.152 389.168L398.25 376.977L399.608 390.055L397.358 390.288L395.597 373.317L397.846 373.083L407.777 385.331L406.413 372.194L408.64 371.963L410.401 388.934Z" fill="black"/>
<path d="M462.657 376.784L456.969 377.375L456.786 375.615L462.475 375.024L462.657 376.784Z" fill="black"/>
<path d="M359.397 436.785L352.042 437.549L352.666 443.563L361.21 442.677L361.4 444.507L350.618 445.626L348.856 428.654L359.522 427.547L359.713 429.389L351.285 430.264L351.852 435.719L359.207 434.955L359.397 436.785Z" fill="black"/>
<path d="M348.833 387.892L344.847 388.306L345.559 395.171L343.31 395.405L341.548 378.433L347.167 377.85C349.078 377.652 350.592 377.935 351.708 378.698C352.832 379.462 353.48 380.675 353.653 382.337C353.762 383.394 353.57 384.345 353.077 385.189C352.591 386.033 351.859 386.702 350.882 387.196L355.616 393.986L355.63 394.126L353.229 394.375L348.833 387.892ZM344.657 386.476L348.095 386.119C349.207 386.004 350.059 385.624 350.652 384.982C351.253 384.338 351.503 383.535 351.403 382.571C351.294 381.522 350.896 380.75 350.209 380.256C349.529 379.761 348.598 379.571 347.416 379.686L343.989 380.042L344.657 386.476Z" fill="black"/>
<path d="M294.378 450.97L292.617 433.998L297.407 433.501C298.884 433.348 300.223 433.539 301.426 434.074C302.628 434.609 303.598 435.447 304.337 436.587C305.084 437.727 305.542 439.078 305.712 440.639L305.825 441.723C305.991 443.324 305.826 444.759 305.329 446.028C304.84 447.296 304.054 448.312 302.971 449.076C301.896 449.84 300.597 450.308 299.076 450.482L294.378 450.97ZM295.046 435.608L296.426 448.907L298.781 448.663C300.506 448.484 301.791 447.809 302.635 446.637C303.488 445.465 303.811 443.888 303.605 441.906L303.502 440.915C303.302 438.988 302.692 437.54 301.673 436.569C300.66 435.59 299.321 435.18 297.657 435.337L295.046 435.608Z" fill="black"/>
<path d="M296.611 395.281L289.501 396.019L288.364 400.614L286.056 400.854L290.775 383.21L292.734 383.007L300.988 399.304L298.691 399.542L296.611 395.281ZM289.986 394.107L295.756 393.509L292.041 385.871L289.986 394.107Z" fill="black"/>
<path d="M309.509 493.107L302.153 493.871L302.778 499.885L311.322 498.999L311.512 500.829L300.73 501.948L298.968 484.976L309.634 483.869L309.825 485.711L301.397 486.586L301.964 492.041L309.319 491.277L309.509 493.107Z" fill="black"/>
<path d="M251.046 446.951C251.218 448.613 251.089 450.096 250.659 451.397C250.228 452.691 249.533 453.717 248.575 454.476C247.617 455.236 246.454 455.686 245.087 455.828C243.75 455.967 242.531 455.763 241.43 455.218C240.328 454.665 239.426 453.812 238.725 452.659C238.032 451.498 237.594 450.118 237.412 448.519L237.285 447.295C237.116 445.663 237.25 444.192 237.687 442.882C238.125 441.572 238.826 440.533 239.791 439.766C240.763 438.989 241.917 438.532 243.253 438.393C244.613 438.252 245.844 438.458 246.946 439.011C248.055 439.556 248.955 440.425 249.644 441.618C250.332 442.803 250.763 444.223 250.934 445.878L251.046 446.951ZM248.706 446.086C248.497 444.073 247.933 442.573 247.013 441.584C246.093 440.588 244.906 440.165 243.453 440.316C242.039 440.463 240.98 441.119 240.276 442.284C239.579 443.44 239.318 444.975 239.493 446.889L239.623 448.136C239.825 450.087 240.392 451.579 241.324 452.613C242.263 453.639 243.452 454.077 244.889 453.928C246.335 453.778 247.399 453.137 248.083 452.006C248.766 450.867 249.017 449.313 248.836 447.345L248.706 446.086Z" fill="black"/>
<path d="M242.29 396.974L234.935 397.737L235.56 403.752L244.104 402.865L244.294 404.695L233.512 405.814L231.75 388.843L242.415 387.736L242.607 389.578L234.179 390.452L234.745 395.907L242.1 395.144L242.29 396.974Z" fill="black"/>
<path d="M243.082 490.777L250.068 504.049L254.179 489.625L257.081 489.324L258.843 506.295L256.605 506.528L255.919 499.919L255.388 492.763L251.243 507.084L249.53 507.262L242.547 494.131L243.505 501.207L244.191 507.816L241.953 508.048L240.192 491.077L243.082 490.777Z" fill="black"/>
<path d="M198.961 454.443C198.937 456.26 198.417 457.716 197.4 458.812C196.389 459.898 194.959 460.538 193.11 460.729C191.105 460.938 189.422 460.386 188.06 459.074C186.707 457.761 185.905 455.901 185.655 453.492L185.485 451.86C185.322 450.282 185.457 448.866 185.893 447.612C186.336 446.356 187.041 445.356 188.008 444.611C188.975 443.859 190.138 443.413 191.498 443.271C193.301 443.084 194.799 443.439 195.991 444.337C197.183 445.226 197.961 446.551 198.324 448.312L196.075 448.546C195.74 447.214 195.215 446.279 194.499 445.74C193.792 445.201 192.855 444.992 191.689 445.113C190.259 445.261 189.191 445.906 188.485 447.048C187.787 448.189 187.539 449.734 187.741 451.685L187.912 453.328C188.103 455.17 188.64 456.595 189.522 457.603C190.404 458.611 191.537 459.043 192.92 458.899C194.163 458.77 195.086 458.392 195.688 457.764C196.298 457.127 196.639 456.098 196.711 454.677L198.961 454.443Z" fill="black"/>
<path d="M183.723 408.639L191.765 407.804L191.955 409.634L181.663 410.702L179.901 393.731L182.151 393.498L183.723 408.639Z" fill="black"/>
<path d="M196.659 511.607C196.62 511.234 196.696 510.912 196.888 510.64C197.088 510.368 197.409 510.209 197.852 510.163C198.295 510.117 198.642 510.207 198.893 510.432C199.152 510.657 199.301 510.955 199.339 511.328C199.377 511.686 199.291 511.997 199.083 512.262C198.883 512.527 198.561 512.682 198.118 512.728C197.675 512.774 197.328 512.688 197.078 512.47C196.835 512.252 196.696 511.964 196.659 511.607Z" fill="black"/>
<rect x="140.351" y="157.982" width="113.869" height="16.3571" rx="8.17856" transform="rotate(-5.92566 140.351 157.982)" fill="#0B69F5"/>
<rect x="143.222" y="185.64" width="137.841" height="16.3571" rx="8.17856" transform="rotate(-5.92566 143.222 185.64)" fill="#0B69F5"/>
<rect x="146.092" y="213.299" width="130.35" height="16.3571" rx="8.17856" transform="rotate(-5.92566 146.092 213.299)" fill="#0B69F5"/>
<rect x="148.963" y="240.957" width="65.924" height="16.3571" rx="8.17856" transform="rotate(-5.92566 148.963 240.957)" fill="#0B69F5"/>
</svg>
